<?xml version="1.0" encoding="UTF-8" standalone="no"?>
<svg
   xmlns:dc="http://purl.org/dc/elements/1.1/"
   xmlns:cc="http://creativecommons.org/ns#"
   xmlns:rdf="http://www.w3.org/1999/02/22-rdf-syntax-ns#"
   xmlns:svg="http://www.w3.org/2000/svg"
   xmlns="http://www.w3.org/2000/svg"
   xmlns:sodipodi="http://sodipodi.sourceforge.net/DTD/sodipodi-0.dtd"
   xmlns:inkscape="http://www.inkscape.org/namespaces/inkscape"
   version="1.1"
   width="400"
   height="400"
   viewBox="0 0 400 400"
   xml:space="preserve"
   id="svg3869"
   sodipodi:docname="open-edu-high-quality-modified.svg"
   inkscape:version="0.92.5 (2060ec1f9f, 2020-04-08)"><metadata
   id="metadata3873"><rdf:RDF><cc:Work
       rdf:about=""><dc:format>image/svg+xml</dc:format><dc:type
         rdf:resource="http://purl.org/dc/dcmitype/StillImage" /><dc:title></dc:title></cc:Work></rdf:RDF></metadata><sodipodi:namedview
   pagecolor="#ffffff"
   bordercolor="#666666"
   borderopacity="1"
   objecttolerance="10"
   gridtolerance="10"
   guidetolerance="10"
   inkscape:pageopacity="0"
   inkscape:pageshadow="2"
   inkscape:window-width="1920"
   inkscape:window-height="1200"
   id="namedview3871"
   showgrid="false"
   inkscape:snap-grids="true"
   inkscape:snap-page="true"
   inkscape:snap-text-baseline="true"
   inkscape:snap-center="false"
   inkscape:pagecheckerboard="true"
   inkscape:zoom="0.8787037"
   inkscape:cx="460.3372"
   inkscape:cy="554.87565"
   inkscape:window-x="0"
   inkscape:window-y="0"
   inkscape:window-maximized="1"
   inkscape:current-layer="svg3869" />
<desc
   id="desc3821">Created with Fabric.js 4.2.0</desc>
<defs
   id="defs3823">
</defs>



<g
   transform="matrix(0.65,0,0,0.65,187.97819,295.21613)"
   id="g3835"
   clip-path="none">
<path
   style="opacity:1;vector-effect:non-scaling-stroke;fill:#9ce7f7;fill-rule:nonzero;stroke:#475556;stroke-width:1;stroke-linecap:round;stroke-linejoin:miter;stroke-miterlimit:4;stroke-dasharray:none;stroke-dashoffset:0"
   transform="translate(-124.65,-262.57)"
   d="m 82.743,276.647 c 13.189165,-2.21321 26.5294,-3.40575 39.902,-3.567 V 234.069 H 78.061 c 0.31574,14.30206 1.882382,28.54907 4.682,42.578 z m -4.682,-53.724 h 44.584 v -39.011 c -13.3585,-0.21981 -26.68023,-1.46817 -39.847,-3.734 -2.829997,14.08177 -4.415113,28.38529 -4.737,42.745 z m 55.73,61.303 v 60.745 c 15.772,-4.291 29.481,-26.416 37.45,-57.179 -12.3756,-2.13098 -24.89462,-3.32304 -37.45,-3.566 z"
   id="path3833"
   inkscape:connector-curvature="0" />
</g><rect
   style="fill:none;stroke-width:1"
   y="-337.44995"
   x="339.13593"
   height="376.69125"
   width="394.8999"
   id="rect4744" />
<g
   transform="matrix(0.65,0,0,0.65,190.28819,177.16613)"
   id="g3839"
   clip-path="none">
<path
   style="opacity:1;vector-effect:non-scaling-stroke;fill:#f78628;fill-rule:nonzero;stroke:#475556;stroke-width:1;stroke-linecap:round;stroke-linejoin:miter;stroke-miterlimit:4;stroke-dasharray:none;stroke-dashoffset:0"
   transform="translate(-128.22,-80.34)"
   d="m 172.802,52.334 -42.8,14.267 c -1.13981,0.377999 -2.37119,0.377999 -3.511,0 L 83.634,52.334 v 56.008 c 28.76455,-10.670974 60.40245,-10.670974 89.167,0 V 52.334 Z"
   id="path3837"
   inkscape:connector-curvature="0" />
</g><rect
   style="fill:none;stroke-width:1"
   y="-337.44995"
   x="339.13593"
   height="376.69125"
   width="394.8999"
   id="rect4740" />
<g
   transform="matrix(0.65,0,0,0.65,231.38819,273.13613)"
   id="g3843"
   clip-path="none">
<path
   style="opacity:1;vector-effect:non-scaling-stroke;fill:#9ce7f7;fill-rule:nonzero;stroke:#475556;stroke-width:1;stroke-linecap:round;stroke-linejoin:miter;stroke-miterlimit:4;stroke-dasharray:none;stroke-dashoffset:0"
   transform="translate(-191.67,-228.5)"
   d="m 85.306,169.143 c 12.338982,2.12584 24.8207,3.31822 37.339,3.567 v -60.411 c -15.66,4.236 -29.425,26.193 -37.339,56.844 z m 37.339,175.55 v -60.466 c -12.55543,0.24279 -25.074494,1.4352 -37.45,3.567 7.969,30.539 21.678,52.663 37.45,56.899 z m -84.876,-42.02 c 15.777856,19.17836 37.247274,32.84072 61.303,39.011 C 86.817719,326.58011 78.284647,308.80764 74.161,289.8 c -12.63235,2.7132 -24.863332,7.03969 -36.392,12.873 z m 147.015,-24.02 c 14.12784,3.09207 27.76166,8.1181 40.516,14.936 11.88112,-17.6653 18.68563,-38.25281 19.672,-59.519 h -55.451 c -0.27401,14.97082 -1.85907,29.88885 -4.737,44.583 z m -0.056,-100.816 c 2.928,14.85699 4.53195,29.94448 4.793,45.085 h 55.73 c -0.95526,-21.43578 -7.82182,-42.18949 -19.84,-59.965 -12.81154,6.80873 -26.5018,11.81601 -40.683,14.88 z M 157.42,341.683 c 24.05578,-6.17015 45.52524,-19.83253 61.303,-39.011 -11.54621,-5.83757 -23.79589,-10.16447 -36.447,-12.874 -4.10671,19.00324 -12.62081,36.77578 -24.856,51.885 z M 317.699,239.641 c -15.389,0 -27.865,12.476 -27.865,27.865 v 33.438 c 0,15.389 12.476,27.865 27.865,27.865 15.389,0 27.865,-12.476 27.865,-27.865 v -33.438 c -0.001,-15.389 -12.476,-27.865 -27.865,-27.865 z m 5.573,33.438 H 312.126 V 256.36 h 11.146 z M 173.638,180.011 c -13.16241,2.32193 -26.48418,3.62613 -39.847,3.901 v 39.011 h 44.584 c -0.31187,-14.41561 -1.89703,-28.77546 -4.737,-42.912 z"
   id="path3841"
   inkscape:connector-curvature="0" />
</g><rect
   style="fill:none;stroke-width:1"
   y="-337.44995"
   x="339.13593"
   height="376.69125"
   width="394.8999"
   id="rect4736" />
<g
   transform="matrix(0.65,0,0,0.65,244.43819,179.27613)"
   id="g3847"
   clip-path="none">
<circle
   style="opacity:1;vector-effect:non-scaling-stroke;fill:#9ce7f7;fill-rule:nonzero;stroke:#475556;stroke-width:1;stroke-linecap:round;stroke-linejoin:miter;stroke-miterlimit:4;stroke-dasharray:none;stroke-dashoffset:0"
   cx="0"
   cy="0"
   r="5.573"
   id="circle3845" />
</g><rect
   style="fill:none;stroke-width:1"
   y="-337.44995"
   x="339.13593"
   height="376.69125"
   width="394.8999"
   id="rect4732" />
<g
   transform="matrix(0.65,0,0,0.65,168.62819,256.64613)"
   id="g3851"
   clip-path="none">
<path
   style="opacity:1;vector-effect:non-scaling-stroke;fill:#9ce7f7;fill-rule:nonzero;stroke:#475556;stroke-width:1;stroke-linecap:round;stroke-linejoin:miter;stroke-miterlimit:4;stroke-dasharray:none;stroke-dashoffset:0"
   transform="translate(-94.78,-203.03)"
   d="m 66.915,234.068 h -55.73 c 0.955994,21.32405 7.762176,41.9737 19.673,59.687 12.754114,-6.81817 26.388017,-11.84389 40.516,-14.935 -2.794009,-14.75797 -4.286079,-29.73287 -4.459,-44.752 z m 66.876,-121.769 v 60.466 c 12.518,-0.249 25,-1.441 37.339,-3.567 -7.914,-30.706 -21.679,-52.663 -37.339,-56.899 z m 0,160.78 c 13.37692,0.21632 26.7172,1.46469 39.902,3.734 2.80931,-14.08339 4.37567,-28.3864 4.681,-42.744 H 133.79 v 39.01 z M 71.708,177.837 c -14.101584,-3.06621 -27.715387,-8.05413 -40.46,-14.824 -11.98814,17.76559 -18.834695,38.49801 -19.784,59.909 h 55.73 c 0.168257,-15.13226 1.678846,-30.21975 4.514,-45.085 z m 27.308,-62.528 c -24.055782,6.17015 -45.525237,19.83253 -61.303,39.011 11.47785,5.81481 23.650844,10.14109 36.224,12.874 4.161049,-19.02727 12.75358,-36.80404 25.079,-51.885 z"
   id="path3849"
   inkscape:connector-curvature="0" />
</g><rect
   style="fill:none;stroke-width:1"
   y="-337.44995"
   x="339.13593"
   height="376.69125"
   width="394.8999"
   id="rect4728" />
<g
   transform="matrix(0.65,0,0,0.65,190.28819,146.78613)"
   id="g3855"
   clip-path="none">
<path
   style="opacity:1;vector-effect:non-scaling-stroke;fill:#f78628;fill-rule:nonzero;stroke:#475556;stroke-width:1;stroke-linecap:round;stroke-linejoin:miter;stroke-miterlimit:4;stroke-dasharray:none;stroke-dashoffset:0"
   transform="translate(-128.22,-33.44)"
   d="M 194.202,33.443 128.218,11.43 62.234,33.443 128.218,55.456 Z"
   id="path3853"
   inkscape:connector-curvature="0" />
</g><rect
   style="fill:none;stroke-width:1"
   y="-337.44995"
   x="339.13593"
   height="376.69125"
   width="394.8999"
   id="rect4724" />
<g
   transform="matrix(0.65,0,0,0.65,228.87819,216.44613)"
   id="g3859"
   clip-path="none">
<path
   style="opacity:1;vector-effect:non-scaling-stroke;fill:#9ce7f7;fill-rule:nonzero;stroke:#475556;stroke-width:1;stroke-linecap:round;stroke-linejoin:miter;stroke-miterlimit:4;stroke-dasharray:none;stroke-dashoffset:0"
   transform="translate(-187.79,-140.97)"
   d="m 182.22,166.914 c 12.57341,-2.73201 24.74652,-7.05833 36.224,-12.874 -15.77786,-19.17836 -37.24727,-32.84072 -61.303,-39.011 12.32542,15.08096 20.91795,32.85773 25.079,51.885 z"
   id="path3857"
   inkscape:connector-curvature="0" />
</g><rect
   style="fill:none;stroke-width:1"
   y="-337.44995"
   x="339.13593"
   height="376.69125"
   width="394.8999"
   id="rect4720" />
<g
   transform="matrix(0.65,0,0,0.65,222.77819,240.66613)"
   id="g3863"
   clip-path="none">
<path
   style="opacity:1;vector-effect:non-scaling-stroke;fill:#414a52;fill-rule:nonzero;stroke:#475556;stroke-width:1;stroke-linecap:round;stroke-linejoin:miter;stroke-miterlimit:4;stroke-dasharray:none;stroke-dashoffset:0"
   transform="translate(-178.37,-178.37)"
   d="M 323.272,228.941 V 103.104 c 0,-13.85 -11.228,-25.078 -25.078,-25.078 -13.85,0 -25.078,11.228 -25.078,25.078 v 58.516 c 0,9.234 -7.485,16.719 -16.719,16.719 H 246.143 C 233.93795,149.81201 211.85633,126.64219 183.949,113.08 V 48.6 l 22.292,-7.412 v 26.75 c -8.705,3.078 -13.268,12.63 -10.19,21.336 3.078,8.706 12.63,13.268 21.336,10.19 8.706,-3.078 13.268,-12.63 10.19,-21.336 -1.68359,-4.76118 -5.42882,-8.506407 -10.19,-10.19 V 33.443 c 0.006,-2.395987 -1.51984,-4.527737 -3.79,-5.294 L 130.001,0.283 c -1.13981,-0.37799918 -2.37119,-0.37799918 -3.511,0 L 42.896,28.148 c -2.286186,0.752597 -3.831087,2.887624 -3.831087,5.2945 0,2.406876 1.544901,4.541903 3.831087,5.2945 L 72.544,48.6 v 64.479 c -63.76,30.758 -90.514,107.378 -59.758,171.14 30.757,63.76 107.378,90.515 171.138,59.758 57.538,-27.756 85.856,-93.643 66.397,-154.491 h 6.075 c 15.389,0 27.865,-12.476 27.865,-27.865 v -58.516 c 0,-7.695 6.238,-13.932 13.932,-13.932 7.694,0 13.932,6.238 13.932,13.932 v 125.838 c -19.176,2.768 -33.415,19.19 -33.438,38.565 v 33.438 c 0,21.545 17.466,39.011 39.011,39.011 21.545,0 39.011,-17.466 39.011,-39.011 V 267.508 C 356.687,248.132 342.448,231.71 323.272,228.941 Z M 133.791,183.912 c 13.3585,-0.21981 26.68023,-1.46817 39.847,-3.734 2.83099,14.08161 4.41611,28.38522 4.737,42.745 h -44.584 z m 0,-11.146 v -60.467 c 15.66,4.291 29.425,26.249 37.339,56.844 -12.33751,2.14494 -24.81927,3.35604 -37.339,3.623 z m -11.146,-60.411 v 60.411 c -12.518,-0.249 -25,-1.441 -37.339,-3.567 7.914,-30.651 21.679,-52.665 37.339,-56.9 z m 0,71.557 v 39.011 H 78.061 c 0.275019,-14.41234 1.823039,-28.77218 4.626,-42.912 13.198933,2.32789 26.55805,3.63211 39.958,3.901 z m -55.73,39.011 h -55.73 c 0.95526,-21.43578 7.821824,-42.18949 19.84,-59.965 12.744546,6.77002 26.35837,11.75794 40.46,14.824 -2.856896,14.88201 -4.386239,29.98837 -4.57,45.141 z m 0,11.145 c 0.255362,14.96952 1.821683,29.88788 4.681,44.584 -14.127843,3.09207 -27.761661,8.1181 -40.516,14.936 C 19.218165,275.91703 12.432805,255.3299 11.463,234.069 h 55.73 -0.278 z m 11.146,0 h 44.584 v 39.011 c -13.37692,0.21632 -26.717197,1.46469 -39.902,3.734 -2.8092,-14.08376 -4.375887,-28.38706 -4.682,-42.745 z m 44.584,50.158 v 60.745 c -15.772,-4.291 -29.481,-26.416 -37.45,-57.179 12.375598,-2.13098 24.89462,-3.32304 37.45,-3.566 z m 11.146,60.745 v -60.745 c 12.55543,0.24279 25.07449,1.4352 37.45,3.567 -7.969,30.54 -21.679,52.665 -37.45,56.9 z m 0,-71.892 v -39.011 h 44.584 c -0.26025,14.29681 -1.77067,28.54345 -4.514,42.577 -13.2447,-2.22039 -26.64135,-3.41261 -40.07,-3.566 z m 55.73,-39.011 h 55.73 c -0.95599,21.32405 -7.76218,41.9737 -19.673,59.687 -12.75411,-6.81817 -26.38802,-11.84389 -40.516,-14.935 2.79401,-14.75797 4.28608,-29.73287 4.459,-44.752 z m 0,-11.145 c -0.24186,-15.13889 -1.82708,-30.22644 -4.737,-45.085 14.10158,-3.06621 27.71539,-8.05413 40.46,-14.824 11.96887,17.77122 18.79596,38.50336 19.728,59.909 z M 218.5,154.042 c -11.47785,5.81481 -23.65084,10.14109 -36.224,12.874 -4.12011,-18.90372 -12.61397,-36.57847 -24.8,-51.606 23.89824,6.15916 45.23766,19.71575 60.968,38.732 z m -6.688,-64.871 c -3.07788,0 -5.573,-2.495117 -5.573,-5.573 0,-3.077883 2.49512,-5.573 5.573,-5.573 3.07788,0 5.573,2.495117 5.573,5.573 0,3.077883 -2.49512,5.573 -5.573,5.573 z M 128.218,11.43 194.202,33.443 128.218,55.456 62.234,33.443 Z m -44.584,40.848 42.8,14.267 c 1.13981,0.377999 2.37119,0.377999 3.511,0 l 42.8,-14.267 v 56.008 c -28.76455,-10.670974 -60.40245,-10.670974 -89.167,0 V 52.334 Z m 15.382,62.975 c -12.186218,15.02741 -20.680098,32.70221 -24.8,51.606 -12.573414,-2.73201 -24.74652,-7.05833 -36.224,-12.874 15.753253,-19.00531 37.112747,-32.5426 61.024,-38.676 z m -61.303,187.42 c 11.546212,-5.83757 23.795885,-10.16447 36.447,-12.874 4.115346,19.02739 12.648836,36.81991 24.911,51.94 -24.062584,-6.18515 -45.53255,-19.86734 -61.302,-39.066 z m 119.596,39.01 c 12.27483,-15.09815 20.82734,-32.87115 24.967,-51.884 12.61554,2.73639 24.82742,7.08159 36.336,12.929 -15.7564,19.13813 -37.183,32.77859 -61.191,38.955 z m 188.254,-40.738 c 0,15.389 -12.476,27.865 -27.865,27.865 -15.389,0 -27.865,-12.476 -27.865,-27.865 v -33.438 c 0,-15.389 12.476,-27.865 27.865,-27.865 15.389,0 27.865,12.476 27.865,27.865 z"
   id="path3861"
   inkscape:connector-curvature="0" />
</g><rect
   style="fill:none;stroke-width:1"
   y="-337.44995"
   x="339.13593"
   height="376.69125"
   width="394.8999"
   id="rect4716" />
<g
   transform="matrix(0.79,0,0,0.79,203.25819,137.68613)"
   id="g3867"
   clip-path="none">
<path
   style="opacity:1;vector-effect:non-scaling-stroke;fill:#475556;fill-rule:nonzero;stroke:#475556;stroke-width:1;stroke-linecap:round;stroke-linejoin:miter;stroke-miterlimit:4;stroke-dasharray:none;stroke-dashoffset:0;paint-order:stroke"
   transform="translate(-257.31,-125.86)"
   d="m 19.867299,202.06841 q 1.546732,-6.72441 5.816228,-10.69847 4.269495,-3.97407 9.719228,-5.18321 5.449733,-1.20913 10.653838,-0.0121 v 0 q 5.145631,1.18359 9.555338,4.62979 4.409707,3.4462 6.540677,8.76935 2.13097,5.32315 0.624587,11.87214 v 0 q -1.613981,7.01677 -5.789043,10.98178 -4.175061,3.965 -9.568657,5.06392 -5.393597,1.09891 -10.831594,-0.15193 v 0 q -5.204105,-1.19703 -9.584575,-4.63651 -4.38047,-3.43947 -6.51144,-8.76262 -2.13097,-5.32316 -0.624587,-11.87214 z m 2.298573,0.71341 q -1.049088,4.5609 0.799773,8.43391 1.848861,3.87301 5.617129,6.49443 3.768269,2.62143 8.270696,3.65706 v 0 q 4.619374,1.06254 9.65803,0.43609 5.038656,-0.62646 8.902033,-3.37026 3.863378,-2.74379 4.993165,-7.65553 v 0 q 1.049089,-4.5609 -0.806497,-8.40467 -1.855586,-3.84378 -5.565381,-6.45175 -3.709796,-2.60797 -8.212223,-3.64361 v 0 q -4.970212,-1.14324 -10.035768,-0.39984 -5.065555,0.74341 -8.811987,3.5141 -3.746432,2.7707 -4.80897,7.39007 z m 26.062585,-45.74314 q 1.500105,-3.20644 4.428949,-5.14829 2.928845,-1.94185 6.774901,-2.16287 3.846056,-0.22103 7.867697,1.66046 v 0 q 4.510761,2.11032 7.126218,5.65239 2.615456,3.54207 3.084538,7.63666 0.469082,4.09459 -1.259853,7.79016 v 0 q -1.754361,3.7499 -4.844497,5.68253 v 0 l 9.021521,4.22064 q 2.445593,1.14415 3.59386,1.94632 v 0 l 1.438768,-3.5001 2.228207,1.04244 -5.186805,11.08669 -1.630395,-0.76277 q 0.73734,-1.57605 0.267134,-2.62405 -0.470205,-1.048 -1.587804,-1.70334 -1.117599,-0.65534 -3.809499,-1.98096 v 0 L 49.542884,173.48537 q -2.282554,-1.06787 -3.430821,-1.87004 v 0 l -1.587826,3.9603 -2.282553,-1.06787 q 1.500105,-3.20645 1.706214,-4.56734 0.206109,-1.36088 -0.198785,-2.47769 v 0 l 0.762766,-1.6304 q 2.764681,1.02847 3.036413,1.15559 v 0 q -0.70459,-2.31688 -0.533436,-5.01896 0.171154,-2.70207 1.213601,-4.93028 z m 1.74766,3.20233 q -0.839042,1.79343 -0.757689,3.88498 0.08135,2.09155 0.800883,3.95174 v 0 q 0.405851,0.12363 3.340562,1.49661 v 0 l 15.572023,7.35146 q 3.416215,-1.78007 5.094299,-5.36694 v 0 q 1.195,-2.55429 0.496131,-5.16658 -0.698868,-2.6123 -3.041802,-4.96701 -2.342934,-2.35471 -5.929804,-4.03279 v 0 q -4.891185,-2.2883 -9.266725,-1.78505 -4.375539,0.50324 -6.307878,4.63358 z m 17.782432,-36.50229 q 1.954753,-2.80631 4.763107,-4.2137 2.808355,-1.40739 6.171344,-1.03914 3.362989,0.36825 6.907794,2.83741 v 0 l -11.776052,17.53592 q 5.873714,4.1645 10.561256,4.46824 4.687541,0.30374 7.602523,-3.8811 v 0 q 1.577519,-2.26474 2.059171,-5.47561 0.481653,-3.21087 -0.349875,-5.69123 v 0 l 1.807722,-0.49572 q 1.552369,3.85991 0.856124,7.79876 -0.696246,3.93885 -2.685292,6.79439 v 0 q -2.366279,3.39711 -5.869677,5.01501 -3.503397,1.6179 -7.579423,1.11859 -4.076026,-0.49931 -7.965465,-3.20853 v 0 q -3.446338,-2.40058 -5.376788,-6.08512 -1.93045,-3.68454 -1.780187,-7.78434 0.150264,-4.09979 2.653718,-7.69383 z m 1.954397,1.28823 q -4.252444,6.10494 2.146874,12.24422 v 0 l 8.744945,-12.55452 q -2.954004,-2.05764 -5.996976,-2.20297 -3.042972,-0.14534 -4.894843,2.51327 z M 94.350147,92.322184 q 3.666262,-3.715766 7.679593,-3.127482 4.01333,0.588283 8.92498,5.434493 v 0 l 7.94405,7.838215 q 1.92195,1.89634 2.73571,3.03643 v 0 l 2.52675,-2.81715 1.75111,1.72777 -8.59676,8.71284 -1.28129,-1.26423 q 1.22208,-1.23859 1.12955,-2.38351 -0.0925,-1.14492 -0.94815,-2.19986 -0.85562,-1.05495 -2.9057,-3.07772 v 0 l -5.9794,-5.899729 q -3.71519,-3.581412 -6.71088,-4.261374 -2.995691,-0.679963 -5.439866,1.797214 v 0 q -1.517074,1.537559 -2.244299,3.812299 -0.727224,2.27474 -0.457877,4.47916 v 0 q 0.51195,0.42084 1.707829,1.60078 v 0 l 10.848893,10.78866 q 1.92195,1.89634 2.73572,3.03642 v 0 l 2.52675,-2.81715 1.75111,1.72778 -8.59676,8.71283 -1.2813,-1.26423 q 1.22209,-1.23859 1.12956,-2.3835 -0.0925,-1.14492 -0.92652,-2.13637 -0.83398,-0.99145 -2.927335,-3.14121 v 0 l -9.695729,-9.65085 q -1.793818,-1.76992 -2.607583,-2.91 v 0 l -2.821168,3.20097 -1.793818,-1.76992 q 2.486316,-2.51989 3.135802,-3.73342 0.649486,-1.21354 0.683661,-2.44416 v 0 l 1.222088,-1.238587 q 0.895771,0.715257 2.773871,2.399757 v 0 q 0.151494,-2.716366 1.194491,-5.353857 1.042997,-2.63749 2.812917,-4.431309 z m 51.970593,-51.508322 5.55486,8.915354 -1.70971,0.998638 q -2.48147,-4.248379 -5.22856,-4.728371 -2.74709,-0.479991 -6.00237,1.560382 v 0 l -4.3951,2.706132 q -1.83488,1.141234 -2.28556,2.273041 -0.45068,1.131807 0.023,2.418568 0.47365,1.286761 1.92621,3.773617 v 0 l 4.84189,8.289521 9.77045,-5.637406 -2.96518,-4.243785 2.27961,-1.331518 6.35498,10.879995 -1.70971,0.998639 q -1.11969,-1.916951 -2.17608,-2.654881 -1.05639,-0.737929 -2.21157,-0.514848 -1.15518,0.223081 -2.86489,1.22172 v 0 l -1.57583,0.989925 -3.69131,2.364539 6.92995,11.864376 q 1.57361,2.694094 2.20499,4.131926 v 0 l 9.80483,-5.935429 q 3.5964,-2.170134 4.46932,-5.077248 0.87292,-2.907114 -1.69933,-7.310921 v 0 l 1.76152,-1.028901 5.59019,10.284424 -26.7337,15.61508 -0.99864,-1.709714 q 1.78307,-1.110972 2.10629,-2.342041 0.32321,-1.231069 -0.19353,-2.353688 -0.51675,-1.122618 -2.0601,-3.764903 v 0 L 128.36455,59.08438 q -1.271,-2.175999 -2.02342,-3.821069 v 0 l -3.60924,2.386086 -1.33152,-2.279618 z m 38.69264,-19.130739 13.19117,36.63764 q 0.65041,1.806479 1.15631,3.920068 v 0 l 3.92682,-1.668911 0.85367,2.371003 -8.0727,2.906528 q -0.83105,-1.422589 -1.45209,-2.793249 v 0 q -0.98671,2.395914 -2.96363,4.255561 -1.97692,1.859647 -4.68663,2.835265 v 0 q -3.50006,1.260173 -6.89631,0.506091 -3.39626,-0.754083 -6.13547,-3.402762 -2.73922,-2.648679 -4.28395,-6.939065 v 0 q -1.62603,-4.516196 -1.06392,-8.799891 0.56211,-4.283694 3.13286,-7.505016 2.57076,-3.221323 6.74824,-4.725401 v 0 q 1.75002,-0.630086 3.75749,-0.810815 2.00747,-0.180729 3.41655,0.01342 v 0 l -2.78457,-7.733986 q -0.77237,-2.145193 -1.15179,-3.730385 v 0 l -3.92683,1.668911 -0.85366,-2.371003 q 3.33069,-1.199197 4.62795,-2.112661 1.29726,-0.913464 1.82337,-1.931901 v 0 z m -5.41423,19.677555 q -4.06458,1.463427 -5.33912,5.716664 -1.27455,4.253237 0.71734,9.785577 v 0 q 2.07318,5.75815 5.54516,8.493739 3.47199,2.735588 7.48011,1.292487 v 0 q 1.80648,-0.650412 3.32162,-2.375683 1.51513,-1.72527 2.2241,-3.829875 v 0 q -0.38165,-0.882914 -1.17434,-3.084559 v 0 l -5.79726,-16.278631 q -3.36465,-1.020543 -6.97761,0.280281 z m 50.95951,-14.160841 3.66571,22.38188 q 0.57155,3.432745 0.68956,5.602831 v 0 l 4.22192,-0.946245 0.41388,2.485781 -8.46349,1.409153 q -0.60141,-1.785471 -1.00555,-3.482135 v 0 q -1.62793,2.278302 -4.02021,3.984371 -2.39229,1.706069 -4.87807,2.119946 v 0 q -5.03075,0.837609 -7.85142,-1.673227 -2.82068,-2.510836 -4.00318,-9.613066 v 0 L 207.57376,38.93415 q -0.41388,-2.48578 -0.40379,-3.886458 v 0 l -4.05422,0.857497 -0.40402,-2.426595 1.83474,-0.305481 q 2.30823,-0.384315 3.42295,-0.995696 1.11473,-0.611381 1.81522,-1.518749 v 0 l 1.71637,-0.285772 3.00554,18.051503 q 0.86717,5.208302 2.72123,7.393469 1.85406,2.185167 5.22762,1.623476 v 0 q 2.18986,-0.364606 4.07414,-2.016506 1.88428,-1.651901 2.86117,-3.821807 v 0 l -2.53253,-15.21061 q -0.46315,-2.781707 -0.453,-4.547351 v 0 l -4.23177,0.88706 -0.40403,-2.426595 1.83475,-0.305481 q 2.30822,-0.384315 3.42295,-0.995696 1.11472,-0.611381 1.81521,-1.518749 v 0 z m 29.04387,-1.489969 q 3.23997,0.01282 5.75592,1.042791 2.51594,1.029967 3.91928,2.715535 1.40334,1.685568 1.3955,3.665552 v 0 q -0.005,1.379989 -0.78902,2.276895 -0.78356,0.896905 -2.16354,0.891443 v 0 q -1.31999,-0.0052 -1.97655,-0.87783 -0.65655,-0.872606 -0.65275,-1.832598 v 0 q 0.006,-1.499989 0.9095,-2.396419 v 0 q -0.65264,-1.862598 -2.53989,-2.560074 -1.88726,-0.697475 -3.74724,-0.704837 v 0 q -2.75998,-0.01093 -4.9559,1.480395 -2.19592,1.49132 -3.46731,4.36631 -1.27139,2.87499 -1.2873,6.894958 v 0 q -0.0159,4.019969 1.26173,7.145051 1.27764,3.125081 3.61061,4.904329 2.33298,1.779249 5.39296,1.791361 v 0 q 2.69997,0.01069 5.31577,-1.448971 2.6158,-1.459657 4.12458,-3.673703 v 0 l 1.55523,1.206166 q -2.23375,3.471185 -5.75085,5.257278 -3.5171,1.786093 -6.87707,1.772793 v 0 q -4.07997,-0.01615 -7.46258,-1.889553 -3.38261,-1.873404 -5.34882,-5.361214 -1.96621,-3.48781 -1.94745,-8.227773 v 0 q 0.0166,-4.199967 2.04169,-8.001981 2.02506,-3.802014 5.6043,-6.127865 3.57923,-2.325851 8.0792,-2.308039 z m 34.15243,2.957788 q 4.97666,0.79649 6.92455,3.812219 1.94789,3.015729 0.97837,8.693865 v 0 l -2.1927,13.320873 q -0.30342,1.895873 -0.88176,3.990802 v 0 l 4.2444,0.436239 -0.39825,2.488333 -8.47218,-1.355929 q -0.0355,-0.917136 0.12575,-3.443397 v 0 q -5.01714,3.632772 -9.99381,2.836282 v 0 q -4.32496,-0.692188 -6.29302,-3.012364 -1.96807,-2.320177 -1.46552,-5.460216 v 0 q 0.54995,-3.436269 3.68418,-5.365196 3.13422,-1.928927 7.49596,-2.415742 4.36174,-0.486815 8.55873,0.245655 v 0 l 0.58789,-3.673254 q 0.61633,-3.850991 -0.16325,-6.19363 -0.77958,-2.342638 -4.45284,-2.930523 v 0 q -1.83662,-0.293943 -3.61878,0.210759 -1.78215,0.504702 -2.79889,1.921832 v 0 q 0.63745,0.95271 0.40989,2.374615 v 0 q -0.14223,0.88869 -0.92195,1.584209 -0.77971,0.695519 -2.02388,0.496397 v 0 q -1.24416,-0.199122 -1.82711,-1.112728 -0.58294,-0.913606 -0.37434,-2.217018 v 0 q 0.31291,-1.955119 2.08444,-3.342593 1.77153,-1.387474 4.61893,-1.903978 2.84741,-0.516505 6.16519,0.01449 z m 1.99231,16.785788 q -4.88662,-0.599787 -8.96757,0.600367 -4.08094,1.200154 -4.67831,4.932654 v 0 q -0.35083,2.192103 0.76294,3.585628 1.11377,1.393525 3.12813,1.715913 v 0 q 2.25135,0.360317 4.22547,-0.204808 1.97412,-0.565124 4.15445,-2.03908 v 0 q 0.083,-0.898173 0.42434,-3.031029 v 0 z m 30.02566,-17.011433 -2.45123,8.034392 9.64127,2.94148 -0.68284,2.238152 -9.67629,-2.826703 q -2.73624,8.762933 -3.79795,12.140101 -1.06172,3.377168 -1.18428,3.778888 v 0 q -1.24312,4.074584 -0.87157,6.352138 0.37155,2.277553 2.78186,3.012923 v 0 q 1.49211,0.45523 3.23565,-0.01651 1.74355,-0.471741 3.32418,-1.745952 v 0 l 1.1643,1.735285 q -3.25367,2.64569 -5.75834,3.042043 -2.50468,0.396352 -4.57067,-0.233965 v 0 q -7.86222,-2.398707 -4.58321,-12.940685 v 0 l 5.19233,-16.607651 -4.43642,-1.29079 0.75287,-2.467707 q 2.77216,0.783035 5.4388,-1.069432 2.66664,-1.852466 4.53033,-4.671305 v 0 z m 25.12397,3.440954 q 1.27304,0.532709 1.72563,1.860324 0.4526,1.327614 -0.12644,2.711349 v 0 q -0.55587,1.328385 -1.87445,1.914838 -1.31859,0.586453 -2.53628,0.0769 v 0 q -1.16234,-0.486387 -1.6426,-1.825582 -0.48027,-1.339195 0.0756,-2.66758 v 0 q 0.55587,-1.328385 1.88604,-1.942513 1.33017,-0.614127 2.4925,-0.12774 z m -2.55843,13.108424 -9.35717,22.361152 q -1.04226,2.490722 -1.79636,3.671113 v 0 l 3.55649,1.293113 -0.94961,2.269325 -11.29128,-4.724904 0.69484,-1.660482 q 1.60514,0.671678 2.63284,0.158628 1.02771,-0.51305 1.68721,-1.700508 0.6595,-1.187458 1.77124,-3.844228 v 0 l 5.28078,-12.61966 q 0.67168,-1.605132 1.72688,-3.505065 v 0 l -4.02245,-1.423054 0.97277,-2.324675 q 3.26562,1.366517 4.83916,1.569684 1.57353,0.203167 2.64952,-0.192117 v 0 z m 24.29471,11.89897 q 3.578,2.082661 5.57445,5.570451 1.99646,3.48779 1.98296,7.506535 -0.0135,4.018746 -2.15652,7.700462 v 0 q -2.29395,3.940992 -5.96284,6.248575 -3.66889,2.307583 -7.76735,2.490673 -4.09846,0.18309 -7.72832,-1.929754 v 0 q -3.578,-2.08266 -5.57871,-5.503504 -2.00071,-3.420843 -1.98722,-7.439588 0.0135,-4.018746 2.21689,-7.804173 v 0 q 2.35431,-4.044702 5.98219,-6.341449 3.62787,-2.296747 7.71124,-2.45391 4.08337,-0.157162 7.71323,1.955682 z m -1.14698,1.970496 q -3.83728,-2.233578 -7.62304,-0.202295 -3.78576,2.031284 -6.47209,6.646393 v 0 q -1.93174,3.31873 -2.69946,6.724902 -0.76772,3.406172 0.0469,6.240761 0.81462,2.834589 3.45923,4.373947 v 0 q 3.78543,2.203394 7.38544,0.133416 3.60001,-2.069979 6.28634,-6.685088 v 0 q 3.04853,-5.237371 3.27718,-10.102823 0.22864,-4.865452 -3.6605,-7.129213 z m 36.99111,23.72175 q 3.97346,3.385265 3.67968,7.43083 -0.29377,4.045565 -4.76855,9.29784 v 0 l -7.23746,8.494985 q -1.751,2.05524 -2.82864,2.95005 v 0 l 2.99406,2.31438 -1.59535,1.87255 -9.31708,-7.93786 1.16733,-1.37016 q 1.32449,1.12842 2.4596,0.95257 1.13511,-0.17586 2.12479,-1.1062 0.98968,-0.93034 2.85741,-3.1226 v 0 l 5.44755,-6.394069 q 3.30068,-3.966699 3.76017,-7.004028 0.45949,-3.03733 -2.18948,-5.294173 v 0 q -1.64419,-1.400799 -3.96594,-1.960047 -2.32176,-0.559249 -4.50063,-0.129717 v 0 q -0.38235,0.541303 -1.47187,1.820117 v 0 l -9.96799,11.607438 q -1.751,2.055238 -2.82865,2.950048 v 0 l 2.99407,2.314381 -1.59535,1.87255 -9.31708,-7.93786 1.16733,-1.370158 q 1.32449,1.128421 2.4596,0.952566 1.13511,-0.175854 2.06304,-1.079979 0.92793,-0.904125 2.91916,-3.148812 v 0 l 8.9174,-10.374294 q 1.63426,-1.918222 2.71191,-2.813033 v 0 l -3.39836,-2.579999 1.63427,-1.918222 q 2.69464,2.295754 3.95235,2.85493 1.2577,0.559176 2.48754,0.503435 v 0 l 1.32449,1.128422 q -0.64797,0.945589 -2.19089,2.941633 v 0 q 2.72018,-0.04718 5.42676,0.80052 2.70659,0.847701 4.62481,2.481966 z m 61.7387,58.409825 -1.65633,1.08488 q -1.20083,-1.72383 -2.44683,-1.98358 -1.24601,-0.25975 -2.34069,0.31381 -1.09468,0.57356 -3.65447,2.2502 v 0 l -21.3315,13.972 q -2.66017,1.74239 -4.06378,2.44657 v 0 l 2.56779,3.48231 -2.20844,1.44651 -7.39694,-11.29315 1.65633,-1.08488 q 1.20082,1.72383 2.44683,1.98358 1.24601,0.25975 2.34069,-0.31381 1.09468,-0.57356 3.65446,-2.2502 v 0 l 9.13491,-5.9833 -11.97013,-17.83716 -10.79123,7.06819 q -2.66016,1.74239 -4.06378,2.44657 v 0 l 2.56779,3.48231 -2.20844,1.44651 -7.39694,-11.29315 1.65633,-1.08489 q 1.20083,1.72384 2.44684,1.98359 1.246,0.25974 2.34068,-0.31382 1.09469,-0.57356 3.65447,-2.2502 v 0 l 21.68285,-14.20212 q 2.10805,-1.38076 3.71243,-2.21645 v 0 l -2.56779,-3.4823 2.20844,-1.44652 7.39694,11.29315 -1.65633,1.08489 q -1.20082,-1.72384 -2.44683,-1.98359 -1.24601,-0.25974 -2.34069,0.31382 -1.09468,0.57356 -3.65446,2.2502 v 0 l -8.33184,5.4573 11.76936,17.96865 10.54027,-6.90381 q 2.10806,-1.38076 3.71244,-2.21644 v 0 l -2.56779,-3.48231 2.20844,-1.44651 z m 5.69375,42.99292 -21.1399,8.21525 q -3.24034,1.26912 -5.3391,1.83337 v 0 l 1.79892,3.93496 -2.34644,0.91901 -3.12903,-7.98909 q 1.6225,-0.95766 3.1989,-1.70395 v 0 q -2.56572,-1.12156 -4.72965,-3.10929 -2.16394,-1.98774 -3.08295,-4.33418 v 0 q -1.85991,-4.74876 0.0133,-8.02772 1.87321,-3.27897 8.57735,-5.90472 v 0 l 9.94446,-3.89487 q 2.34645,-0.91901 3.71893,-1.19881 v 0 l -1.67741,-3.78923 2.29058,-0.89714 0.67832,1.73191 q 0.85337,2.17884 1.68207,3.14303 0.8287,0.96418 1.86132,1.46187 v 0 l 0.63456,1.62017 -17.03968,6.67379 q -4.91636,1.92556 -6.67085,4.19145 -1.75449,2.26589 -0.50726,5.45036 v 0 q 0.80961,2.0671 2.81549,3.56902 2.00588,1.50192 4.3309,2.00893 v 0 l 14.35802,-5.62349 q 2.62579,-1.02842 4.35536,-1.38364 v 0 l -1.74306,-3.95684 2.29058,-0.89713 0.67832,1.7319 q 0.85337,2.17885 1.68207,3.14303 0.8287,0.96419 1.86132,1.46188 v 0 z m 19.91107,17.39469 -17.54185,3.46095 q 1.97342,1.32303 3.33296,3.40933 1.35955,2.0863 1.89379,4.7941 v 0 q 0.74329,3.76737 -0.47761,7.1884 -1.2209,3.42102 -4.29248,5.83115 -3.07157,2.41013 -7.54533,3.29279 v 0 q -4.88581,0.96395 -9.01243,-0.42352 -4.12661,-1.38747 -6.85429,-4.51871 -2.72769,-3.13124 -3.51743,-7.13407 v 0 q -0.46456,-2.35461 -0.0934,-4.81295 0.37118,-2.45834 1.97693,-4.54869 v 0 l -2.92767,-0.89014 -0.40649,-2.06029 36.81401,-7.14095 q 2.23688,-0.44133 3.86108,-0.57831 v 0 l -1.06005,-4.13297 2.47234,-0.48779 q 0.69684,3.53192 1.40505,4.95168 0.70821,1.41977 1.63605,2.0929 v 0 z m -15.54791,10.4675 q -0.38326,-1.94255 -1.67313,-3.67566 -1.28986,-1.7331 -3.08747,-2.78504 v 0 l -14.89291,2.93831 q -7.77022,1.53304 -6.39978,8.47914 v 0 q 0.8362,4.2383 4.77341,6.06066 3.93721,1.82236 9.52941,0.71904 v 0 q 6.18085,-1.21946 9.40699,-4.24108 3.22613,-3.02161 2.34348,-7.49537 z"
   id="path3865"
   inkscape:connector-curvature="0" />
</g><rect
   style="fill:none;stroke-width:1"
   y="-337.44995"
   x="339.13593"
   height="376.69125"
   width="394.8999"
   id="rect4712" />
</svg>