<?xml version="1.0" encoding="UTF-8" standalone="no"?>
<svg
   xmlns:dc="http://purl.org/dc/elements/1.1/"
   xmlns:cc="http://creativecommons.org/ns#"
   xmlns:rdf="http://www.w3.org/1999/02/22-rdf-syntax-ns#"
   xmlns:svg="http://www.w3.org/2000/svg"
   xmlns="http://www.w3.org/2000/svg"
   xmlns:sodipodi="http://sodipodi.sourceforge.net/DTD/sodipodi-0.dtd"
   xmlns:inkscape="http://www.inkscape.org/namespaces/inkscape"
   width="64"
   height="64"
   viewBox="0 0 64 64"
   fill="none"
   version="1.1"
   id="svg48"
   sodipodi:docname="20749389301636719786.svg"
   inkscape:export-filename="/home/razvan/Downloads/20749389301636719786.svg.png"
   inkscape:export-xdpi="824"
   inkscape:export-ydpi="824"
   inkscape:version="0.92.3 (2405546, 2018-03-11)">
  <metadata
     id="metadata54">
    <rdf:RDF>
      <cc:Work
         rdf:about="">
        <dc:format>image/svg+xml</dc:format>
        <dc:type
           rdf:resource="http://purl.org/dc/dcmitype/StillImage" />
      </cc:Work>
    </rdf:RDF>
  </metadata>
  <defs
     id="defs52" />
  <sodipodi:namedview
     pagecolor="#ffffff"
     bordercolor="#666666"
     borderopacity="1"
     objecttolerance="10"
     gridtolerance="10"
     guidetolerance="10"
     inkscape:pageopacity="0"
     inkscape:pageshadow="2"
     inkscape:window-width="1853"
     inkscape:window-height="1019"
     id="namedview50"
     showgrid="false"
     inkscape:zoom="3.6875"
     inkscape:cx="0.40677966"
     inkscape:cy="32"
     inkscape:window-x="67"
     inkscape:window-y="33"
     inkscape:window-maximized="1"
     inkscape:current-layer="svg48" />
  <path
     d="M28.843 49.825L23 48.236V46.722C23.9229 46.0794 24.6774 45.2238 25.1996 44.2278C25.7218 43.2318 25.9964 42.1246 26 41V39.107C26.255 38.99 26.416 38.907 26.447 38.895C26.6132 38.8119 26.753 38.6842 26.8507 38.5261C26.9484 38.368 27.0001 38.1858 27 38V32L32.359 29.939C32.5481 29.8667 32.7108 29.7387 32.8255 29.5719C32.9403 29.4051 33.0017 29.2074 33.0017 29.005C33.0017 28.8026 32.9403 28.6049 32.8255 28.4381C32.7108 28.2713 32.5481 28.1433 32.359 28.071L19.359 23.071C19.1278 22.983 18.8722 22.983 18.641 23.071L5.641 28.071C5.45303 28.1433 5.29128 28.2707 5.17691 28.4364C5.06253 28.6022 5.00087 28.7986 5 29V33.586L2.293 36.293L3.707 37.707L5 36.414V38H7V36.414L8.293 37.707L9.707 36.293L7 33.586V30.456L11 32V38C10.999 38.1867 11.0502 38.3699 11.148 38.529C11.2457 38.688 11.386 38.8166 11.553 38.9C11.584 38.915 11.745 38.995 12 39.112V41C11.9913 42.1273 12.2605 43.2393 12.7837 44.2378C13.307 45.2363 14.0682 46.0906 15 46.725V48.236L9.154 49.826C7.67579 50.2355 6.37204 51.1171 5.44152 52.3365C4.511 53.5559 4.00476 55.0461 4 56.58V61C4 61.2652 4.10536 61.5196 4.29289 61.7071C4.48043 61.8946 4.73478 62 5 62H33C33.2652 62 33.5196 61.8946 33.7071 61.7071C33.8946 61.5196 34 61.2652 34 61V56.58C33.9951 55.0456 33.4885 53.5549 32.5574 52.3353C31.6263 51.1157 30.3218 50.2341 28.843 49.825V49.825ZM17 49V47.7C18.3032 48.101 19.6968 48.101 21 47.7V49C21.0016 49.1416 21.0336 49.2812 21.0938 49.4094C21.154 49.5376 21.241 49.6514 21.349 49.743L19 51.7L16.651 49.744C16.7591 49.6523 16.8462 49.5383 16.9064 49.41C16.9666 49.2816 16.9986 49.1418 17 49V49ZM19 25.071L29.214 29L19 32.929L8.786 29L19 25.071ZM18.641 34.934C18.8722 35.022 19.1278 35.022 19.359 34.934L25 32.764V37.364C23.1163 38.2702 21.0829 38.8246 19 39C16.9171 38.8235 14.8839 38.2687 13 37.363V32.763L18.641 34.934ZM14 41V39.927C15.5963 40.5573 17.2857 40.9198 19 41C20.7143 40.9198 22.4037 40.5573 24 39.927V41C23.9989 41.8779 23.7666 42.7401 23.3265 43.4997C22.8865 44.2594 22.2542 44.8898 21.4932 45.3276C20.7322 45.7653 19.8694 45.995 18.9914 45.9935C18.1135 45.992 17.2515 45.7594 16.492 45.319C16.1148 45.1044 15.7689 44.8389 15.464 44.53C14.9973 44.0687 14.6274 43.5188 14.376 42.9126C14.1247 42.3065 13.9968 41.6562 14 41V41ZM32 60H29V56H27V60H11V56H9V60H6V56.58C6.00365 55.4841 6.36552 54.4195 7.03044 53.5484C7.69537 52.6773 8.62688 52.0475 9.683 51.755L14.4 50.471L18.36 53.771C18.5397 53.9207 18.7661 54.0026 19 54.0026C19.2339 54.0026 19.4603 53.9207 19.64 53.771L23.6 50.471L28.314 51.754C29.3707 52.0463 30.3028 52.6761 30.9683 53.5474C31.6337 54.4187 31.9961 55.4837 32 56.58V60Z"
     fill="black"
     id="path2" />
  <path
     d="M61.832 14.445L60 11.7V8C59.9999 7.73481 59.8946 7.48049 59.707 7.293L57.707 5.293C57.5195 5.10545 57.2652 5.00006 57 5H54.721L53.949 2.684C53.8827 2.48479 53.7553 2.31153 53.5849 2.18876C53.4146 2.06599 53.21 1.99995 53 2H50C49.7348 2.00006 49.4805 2.10545 49.293 2.293L48 3.586L46.707 2.293C46.5195 2.10545 46.2652 2.00006 46 2H43C42.79 1.99995 42.5854 2.06599 42.4151 2.18876C42.2447 2.31153 42.1173 2.48479 42.051 2.684L41.279 5H39C38.7348 5.00006 38.4805 5.10545 38.293 5.293L36.293 7.293C36.1054 7.48049 36.0001 7.73481 36 8V11.7L34.168 14.448C34.0593 14.6116 34.0009 14.8035 34 15V20C34.0001 20.2652 34.1054 20.5195 34.293 20.707L37 23.414V25C37 25.2229 37.0745 25.4395 37.2117 25.6152C37.3488 25.791 37.5408 25.9158 37.757 25.97L41.225 26.837L42.051 29.316C42.1173 29.5152 42.2447 29.6885 42.4151 29.8112C42.5854 29.934 42.79 30.0001 43 30H46C46.2652 29.9999 46.5195 29.8946 46.707 29.707L48 28.414L49.293 29.707C49.4805 29.8946 49.7348 29.9999 50 30H53C53.21 30.0001 53.4146 29.934 53.5849 29.8112C53.7553 29.6885 53.8827 29.5152 53.949 29.316L54.775 26.837L58.243 25.97C58.4592 25.9158 58.6512 25.791 58.7883 25.6152C58.9255 25.4395 59 25.2229 59 25V23.414L61.707 20.707C61.8946 20.5195 61.9999 20.2652 62 20V15C61.9997 14.8025 61.9413 14.6095 61.832 14.445ZM45.586 28H43.721L43.144 26.27L44.707 24.707C44.8946 24.5195 44.9999 24.2652 45 24V23H43V23.586L41.693 24.893L39 24.219V19H37V20.586L36 19.586V15.3L37.155 13.567L38 14.411V15H40V14C39.9999 13.7348 39.8946 13.4805 39.707 13.293L38 11.586V8.414L39.414 7H41.586L43 8.414V9H45V8C44.9999 7.73481 44.8946 7.48049 44.707 7.293L43.144 5.73L43.721 4H45.586L47 5.414V26.586L45.586 28ZM60 19.586L59 20.586V19H57V24.219L54.307 24.893L53 23.586V23H51V24C51.0001 24.2652 51.1054 24.5195 51.293 24.707L52.856 26.27L52.279 28H50.414L49 26.586V5.414L50.414 4H52.279L52.856 5.73L51.293 7.293C51.1054 7.48049 51.0001 7.73481 51 8V9H53V8.414L54.414 7H56.586L58 8.414V11.586L56.293 13.293C56.1054 13.4805 56.0001 13.7348 56 14V15H58V14.414L58.845 13.57L60 15.3V19.586Z"
     fill="black"
     id="path4" />
  <path
     d="M54.707 15.293L53 13.586V11H51V14C51.0001 14.2652 51.1054 14.5195 51.293 14.707L53.293 16.707L54.707 15.293Z"
     fill="black"
     id="path6" />
  <path
     d="M53.707 18.293L52.293 19.707L53 20.414V22H55V20C54.9999 19.7348 54.8945 19.4805 54.707 19.293L53.707 18.293Z"
     fill="black"
     id="path8" />
  <path
     d="M43 13.586L41.293 15.293L42.707 16.707L44.707 14.707C44.8945 14.5195 44.9999 14.2652 45 14V11H43V13.586Z"
     fill="black"
     id="path10" />
  <path
     d="M41.293 19.293C41.1054 19.4805 41.0001 19.7348 41 20V22H43V20.414L43.707 19.707L42.293 18.293L41.293 19.293Z"
     fill="black"
     id="path12" />
  <path
     d="M33 8H31V10H33V8Z"
     fill="black"
     id="path14" />
  <path
     d="M28.8171 8.19142L26.8474 8.53857L27.1946 10.5082L29.1642 10.1611L28.8171 8.19142Z"
     fill="black"
     id="path16" />
  <path
     d="M24.7309 9.10511L22.8525 9.789L23.5367 11.6683L25.4151 10.9844L24.7309 9.10511Z"
     fill="black"
     id="path18" />
  <path
     d="M20.866 10.7146L19.134 11.7146L20.1341 13.4466L21.8661 12.4466L20.866 10.7146Z"
     fill="black"
     id="path20" />
  <path
     d="M17.3394 12.9718L15.8073 14.2574L17.0929 15.7895L18.625 14.5039L17.3394 12.9718Z"
     fill="black"
     id="path22" />
  <path
     d="M14.2603 15.8122L12.9744 17.3441L14.5063 18.6299L15.7921 17.0981L14.2603 15.8122Z"
     fill="black"
     id="path24" />
  <path
     d="M11.7151 19.1343L10.715 20.8664L12.447 21.8664L13.4471 20.1344L11.7151 19.1343Z"
     fill="black"
     id="path26" />
  <path
     d="M9.78914 22.8524L9.10541 24.7308L10.9848 25.4149L11.6685 23.5365L9.78914 22.8524Z"
     fill="black"
     id="path28" />
  <path
     d="M36.805 53.4912L34.8353 53.8384L35.1825 55.808L37.1521 55.4609L36.805 53.4912Z"
     fill="black"
     id="path30" />
  <path
     d="M40.4639 52.3311L38.5855 53.015L39.2697 54.8943L41.1481 54.2104L40.4639 52.3311Z"
     fill="black"
     id="path32" />
  <path
     d="M43.8664 50.5529L42.1344 51.553L43.1345 53.285L44.8665 52.2849L43.8664 50.5529Z"
     fill="black"
     id="path34" />
  <path
     d="M46.9072 48.2105L45.3751 49.4961L46.6607 51.0282L48.1928 49.7427L46.9072 48.2105Z"
     fill="black"
     id="path36" />
  <path
     d="M49.5044 45.3881L48.2186 46.92L49.7504 48.2059L51.0363 46.674L49.5044 45.3881Z"
     fill="black"
     id="path38" />
  <path
     d="M51.5534 42.134L50.5533 43.866L52.2854 44.8661L53.2854 43.1341L51.5534 42.134Z"
     fill="black"
     id="path40" />
  <path
     d="M53.0161 38.5858L52.3324 40.4642L54.2118 41.1483L54.8955 39.2698L53.0161 38.5858Z"
     fill="black"
     id="path42" />
  <path
     d="M53.8395 34.836L53.4923 36.8057L55.4619 37.1528L55.8091 35.1832L53.8395 34.836Z"
     fill="black"
     id="path44" />
  <path
     d="M56 31H54V33H56V31Z"
     fill="black"
     id="path46" />
</svg>
