<?xml version="1.0" encoding="UTF-8" standalone="no" ?>
<!DOCTYPE svg PUBLIC "-//W3C//DTD SVG 1.1//EN" "http://www.w3.org/Graphics/SVG/1.1/DTD/svg11.dtd">
<svg xmlns="http://www.w3.org/2000/svg" xmlns:xlink="http://www.w3.org/1999/xlink" version="1.1" width="1080" height="1080" viewBox="0 0 1080 1080" xml:space="preserve">
<desc>Created with Fabric.js 4.2.0</desc>
<defs>
</defs>
<g transform="matrix(1 0 0 1 540 540)" id="557c4914-2cf9-42f2-8826-b8fecdc043a9"  >
<rect style="stroke: none; stroke-width: 1; stroke-dasharray: none; stroke-linecap: butt; stroke-dashoffset: 0; stroke-linejoin: miter; stroke-miterlimit: 4; fill: rgb(255,255,255); fill-rule: nonzero; opacity: 1;" vector-effect="non-scaling-stroke"  x="-540" y="-540" rx="0" ry="0" width="1080" height="1080" />
</g>
<g transform="matrix(1 0 0 1 540 540)" id="d5d07cae-1625-4e36-a41f-69aee12c73fb"  >
</g>
<g transform="matrix(2.31 0 0 2.31 540 540)"  >
<path style="stroke: none; stroke-width: 1; stroke-dasharray: none; stroke-linecap: butt; stroke-dashoffset: 0; stroke-linejoin: miter; stroke-miterlimit: 4; fill: rgb(1,1,1); fill-opacity: 0; fill-rule: nonzero; opacity: 1;" vector-effect="non-scaling-stroke"  transform=" translate(-93, -76.5)" d="M 0 0 L 186 0 L 186 153 L 0 153 z" stroke-linecap="round" />
</g>
<g transform="matrix(0.65 0 0 0.65 523.7 630.39)"  >
<path style="stroke: rgb(71,85,86); stroke-width: 1; stroke-dasharray: none; stroke-linecap: round; stroke-dashoffset: 0; stroke-linejoin: miter; stroke-miterlimit: 4; fill: rgb(156,231,247); fill-rule: nonzero; opacity: 1;" vector-effect="non-scaling-stroke"  transform=" translate(-124.65, -262.57)" d="M 82.743 276.647 C 95.93216494591928 274.43378971315553 109.27240229311565 273.24125233113335 122.64499999999983 273.08000000000004 L 122.645 234.069 L 78.061 234.069 C 78.37673974577822 248.37106471105375 79.94338161876549 262.6180697661694 82.74300000000002 276.64700000000005 z M 78.061 222.923 L 122.64500000000001 222.923 L 122.64500000000001 183.912 C 109.2864999378923 183.69219304721832 95.96477001494793 182.4438345878042 82.79799999999997 180.17799999999997 C 79.96800308742009 194.2597653621508 78.38288723414496 208.5632859760935 78.06100000000004 222.92299999999997 z M 133.791 284.226 L 133.791 344.971 C 149.563 340.68 163.272 318.555 171.24099999999999 287.79200000000003 C 158.8654024511553 285.66102285796546 146.34637534139046 284.4689574194228 133.79100000000014 284.226 z" stroke-linecap="round" />
</g>
<g transform="matrix(0.65 0 0 0.65 526.01 512.34)"  >
<path style="stroke: rgb(71,85,86); stroke-width: 1; stroke-dasharray: none; stroke-linecap: round; stroke-dashoffset: 0; stroke-linejoin: miter; stroke-miterlimit: 4; fill: rgb(247,134,40); fill-rule: nonzero; opacity: 1;" vector-effect="non-scaling-stroke"  transform=" translate(-128.22, -80.34)" d="M 172.802 52.334 L 130.002 66.601 C 128.86218860795017 66.97899918138602 127.63081139204984 66.97899918138602 126.49100000000001 66.601 L 83.634 52.334 L 83.634 108.34200000000001 C 112.39855452045373 97.67102607331229 144.03644547954633 97.6710260733123 172.80100000000004 108.34200000000004 L 172.801 52.334 L 172.802 52.334 z" stroke-linecap="round" />
</g>
<g transform="matrix(0.65 0 0 0.65 567.11 608.31)"  >
<path style="stroke: rgb(71,85,86); stroke-width: 1; stroke-dasharray: none; stroke-linecap: round; stroke-dashoffset: 0; stroke-linejoin: miter; stroke-miterlimit: 4; fill: rgb(156,231,247); fill-rule: nonzero; opacity: 1;" vector-effect="non-scaling-stroke"  transform=" translate(-191.67, -228.5)" d="M 85.306 169.143 C 97.64498237021874 171.26884225052 110.12670135221651 172.4612226465881 122.64499999999984 172.71 L 122.645 112.299 C 106.985 116.53500000000001 93.22 138.49200000000002 85.306 169.143 z M 122.645 344.693 L 122.645 284.227 C 110.08957092575811 284.46979175141075 97.57050624217578 285.66219505518484 85.19499999999995 287.794 C 93.16399999999999 318.33299999999997 106.87299999999999 340.457 122.645 344.693 z M 37.769 302.673 C 53.546855962353646 321.8513619695355 75.0162742788357 335.5137190800241 99.07199999999997 341.684 C 86.81771904595799 326.5801092818254 78.28464658049253 308.807642026468 74.16099999999999 289.8 C 61.52864998926599 292.5132026456161 49.29766847801135 296.83968717502864 37.768999999999934 302.673 z M 184.784 278.653 C 198.91184343459153 281.7450724877789 212.54566082496277 286.7711040936281 225.29999999999993 293.589 C 237.18112219936734 275.92370134034053 243.98562978432906 255.33619183701924 244.97199999999998 234.07 L 189.521 234.07 C 189.2469935075028 249.04081920844195 187.66193377048435 263.9588513501976 184.78400000000005 278.653 z M 184.728 177.837 C 187.65599516816204 192.69399142719996 189.2599511461889 207.78148470267263 189.52100000000002 222.92199999999977 L 245.251 222.922 C 244.29574024850828 201.48621635157514 237.42917612034245 180.73251080996909 225.411 162.957 C 212.5994583700838 169.76573263196082 198.909198945325 174.77300987897829 184.728 177.837 z M 157.42 341.683 C 181.47578151905503 335.51284784488763 202.9452370514161 321.85046705156697 218.72299999999998 302.672 C 207.1767877548685 296.8344272879677 194.92711456771374 292.50753364483023 182.27599999999995 289.79799999999994 C 178.16929013133577 308.8012431187257 169.6551877213188 326.5737810791268 157.41999999999996 341.68299999999994 z M 317.699 239.641 C 302.31 239.641 289.834 252.117 289.834 267.506 L 289.834 300.94399999999996 C 289.834 316.33299999999997 302.31 328.80899999999997 317.699 328.80899999999997 C 333.088 328.80899999999997 345.564 316.33299999999997 345.564 300.94399999999996 L 345.564 267.506 C 345.56300000000005 252.11699999999996 333.088 239.64099999999996 317.699 239.64099999999996 z M 323.272 273.079 L 312.126 273.079 L 312.126 256.36 L 323.272 256.36 L 323.272 273.079 z M 173.638 180.011 C 160.47558770107062 182.33293159321056 147.15381811512003 183.63712571459462 133.79100000000003 183.91199999999995 L 133.791 222.923 L 178.375 222.923 C 178.0631327569678 208.5073893055253 176.477967294546 194.14753701009687 173.638 180.011 z" stroke-linecap="round" />
</g>
<g transform="matrix(0.65 0 0 0.65 580.16 514.45)"  >
<circle style="stroke: rgb(71,85,86); stroke-width: 1; stroke-dasharray: none; stroke-linecap: round; stroke-dashoffset: 0; stroke-linejoin: miter; stroke-miterlimit: 4; fill: rgb(156,231,247); fill-rule: nonzero; opacity: 1;" vector-effect="non-scaling-stroke"  cx="0" cy="0" r="5.573" />
</g>
<g transform="matrix(0.65 0 0 0.65 504.35 591.82)"  >
<path style="stroke: rgb(71,85,86); stroke-width: 1; stroke-dasharray: none; stroke-linecap: round; stroke-dashoffset: 0; stroke-linejoin: miter; stroke-miterlimit: 4; fill: rgb(156,231,247); fill-rule: nonzero; opacity: 1;" vector-effect="non-scaling-stroke"  transform=" translate(-94.78, -203.03)" d="M 66.915 234.068 L 11.18500000000001 234.068 C 12.140993997886799 255.39204516760634 18.94717624611458 276.0416969670254 30.858000000000025 293.75500000000005 C 43.61211429834256 286.9368326223627 57.246017081282034 281.9111060436481 71.37399999999995 278.82 C 68.57999068912378 264.0620307094737 67.0879213837978 249.0871292625241 66.915 234.068 z M 133.791 112.299 L 133.791 172.76500000000001 C 146.309 172.51600000000002 158.791 171.324 171.13 169.198 C 163.216 138.49200000000002 149.451 116.53500000000001 133.791 112.299 z M 133.791 273.079 C 147.16792015235094 273.2953168220798 160.50819742828597 274.5436902206148 173.6929999999999 276.813 C 176.5023104306608 262.72961183542253 178.0686677041803 248.42660493533342 178.37400000000002 234.06900000000005 L 133.79 234.069 L 133.79 273.079 L 133.791 273.079 z M 71.708 177.837 C 57.606415695033085 174.7707866931624 43.992613352583284 169.78287255760935 31.24799999999999 163.01299999999995 C 19.259859735414857 180.77858818320595 12.413304916001909 201.511010983257 11.463999999999992 222.922 L 67.19399999999999 222.92199999999997 C 67.36225678194486 207.78973803023214 68.8728464398184 192.70224695242374 71.708 177.83700000000005 z M 99.016 115.309 C 74.96021848094497 121.47915215511236 53.49076294858385 135.14153294843305 37.71299999999995 154.32000000000005 C 49.19085017905626 160.1348103485768 61.36384361313082 164.4610889889885 73.93700000000001 167.19399999999996 C 78.09804896204089 148.1667276590271 86.69058013300315 130.38996304299872 99.01600000000002 115.30900000000003 z" stroke-linecap="round" />
</g>
<g transform="matrix(0.65 0 0 0.65 526.01 481.96)"  >
<path style="stroke: rgb(71,85,86); stroke-width: 1; stroke-dasharray: none; stroke-linecap: round; stroke-dashoffset: 0; stroke-linejoin: miter; stroke-miterlimit: 4; fill: rgb(247,134,40); fill-rule: nonzero; opacity: 1;" vector-effect="non-scaling-stroke"  transform=" translate(-128.22, -33.44)" d="M 194.202 33.443 L 128.218 11.43 L 62.234 33.443 L 128.218 55.456 z" stroke-linecap="round" />
</g>
<g transform="matrix(0.65 0 0 0.65 564.6 551.62)"  >
<path style="stroke: rgb(71,85,86); stroke-width: 1; stroke-dasharray: none; stroke-linecap: round; stroke-dashoffset: 0; stroke-linejoin: miter; stroke-miterlimit: 4; fill: rgb(156,231,247); fill-rule: nonzero; opacity: 1;" vector-effect="non-scaling-stroke"  transform=" translate(-187.79, -140.97)" d="M 182.22 166.914 C 194.7934141217233 164.18199298928099 206.9665203962561 159.85567424540022 218.44399999999996 154.03999999999996 C 202.66614403764632 134.86163803046452 181.19672572116423 121.1992809199759 157.14099999999993 115.02899999999998 C 169.46641986699686 130.1099630429987 178.05895103795908 147.88672765902706 182.21999999999997 166.91399999999993 z" stroke-linecap="round" />
</g>
<g transform="matrix(0.65 0 0 0.65 558.5 575.84)"  >
<path style="stroke: rgb(71,85,86); stroke-width: 1; stroke-dasharray: none; stroke-linecap: round; stroke-dashoffset: 0; stroke-linejoin: miter; stroke-miterlimit: 4; fill: rgb(65,74,82); fill-rule: nonzero; opacity: 1;" vector-effect="non-scaling-stroke"  transform=" translate(-178.37, -178.37)" d="M 323.272 228.941 L 323.272 103.104 C 323.272 89.254 312.044 78.026 298.194 78.026 C 284.34400000000005 78.026 273.11600000000004 89.25399999999999 273.11600000000004 103.104 L 273.11600000000004 161.62 C 273.11600000000004 170.854 265.63100000000003 178.339 256.39700000000005 178.339 L 246.14300000000006 178.339 C 233.937950595301 149.8120127275983 211.85633470940175 126.64218652092396 183.949 113.07999999999993 L 183.94900000000007 48.6 L 206.24100000000007 41.188 L 206.24100000000007 67.938 C 197.53600000000006 71.016 192.97300000000007 80.568 196.05100000000007 89.274 C 199.12900000000008 97.98 208.68100000000007 102.542 217.38700000000006 99.464 C 226.09300000000005 96.386 230.65500000000006 86.834 227.57700000000006 78.128 C 225.89340677741507 73.36682000889482 222.14817999110522 69.62159322258498 217.38700000000006 67.938 L 217.38700000000006 33.443 C 217.3932917712446 31.047013130370473 215.8671616066012 28.915262974269655 213.59700000000007 28.148999999999997 L 130.001 0.283 C 128.86118860795017 -0.09499918138602292 127.62981139204983 -0.09499918138602331 126.49000000000001 0.283 L 42.896 28.148 C 40.60981359288816 28.9005968505811 39.06491300700866 31.035624368072263 39.06491300700866 33.4425 C 39.06491300700866 35.84937563192774 40.60981359288816 37.9844031494189 42.896 38.737 L 72.544 48.6 L 72.544 113.07900000000001 C 8.783999999999999 143.83700000000002 -17.97 220.457 12.785999999999994 284.219 C 43.54299999999999 347.979 120.16399999999999 374.734 183.924 343.977 C 241.462 316.221 269.78 250.33399999999997 250.32100000000003 189.48599999999996 L 256.396 189.48599999999996 C 271.785 189.48599999999996 284.261 177.00999999999996 284.261 161.62099999999995 L 284.261 103.10499999999996 C 284.261 95.40999999999997 290.499 89.17299999999996 298.19300000000004 89.17299999999996 C 305.88700000000006 89.17299999999996 312.12500000000006 95.41099999999996 312.12500000000006 103.10499999999996 L 312.12500000000006 228.94299999999996 C 292.94900000000007 231.71099999999996 278.71000000000004 248.13299999999995 278.68700000000007 267.5079999999999 L 278.68700000000007 300.9459999999999 C 278.68700000000007 322.49099999999993 296.1530000000001 339.95699999999994 317.6980000000001 339.95699999999994 C 339.2430000000001 339.95699999999994 356.7090000000001 322.49099999999993 356.7090000000001 300.9459999999999 L 356.7090000000001 267.5079999999999 C 356.6870000000001 248.13199999999992 342.4480000000001 231.70999999999992 323.2720000000001 228.94099999999992 z M 133.791 183.912 C 147.14950006210773 183.69219304721832 160.47122998505208 182.4438345878042 173.63800000000006 180.17799999999997 C 176.46898542657237 194.25961154577766 178.05411097264954 208.56321962411093 178.37500000000009 222.92300000000006 L 133.791 222.923 L 133.791 183.912 z M 133.791 172.76600000000002 L 133.791 112.29900000000002 C 149.451 116.59000000000002 163.216 138.54800000000003 171.13 169.14300000000003 C 158.7924871717082 171.2879405171071 146.31073350804593 172.4990440154185 133.791 172.76600000000005 z M 122.645 112.35500000000002 L 122.645 172.76600000000002 C 110.127 172.51700000000002 97.645 171.32500000000002 85.306 169.199 C 93.22 138.548 106.985 116.53400000000002 122.645 112.299 L 122.645 112.355 z M 122.645 183.91200000000003 L 122.645 222.92300000000003 L 78.061 222.92300000000003 C 78.33601891617836 208.51066403954545 79.88403915293485 194.15081873048916 82.68699999999998 180.01100000000014 C 95.88593260787947 182.33888935534745 109.24505270989974 183.64310697179423 122.64500000000001 183.91200000000003 z M 66.91499999999999 222.92300000000003 L 11.184999999999995 222.92300000000003 C 12.140259751491698 201.48721635157514 19.006823879657503 180.73351080996918 31.024999999999984 162.95800000000003 C 43.7695462848794 169.72802284284944 57.38336979608013 174.71594473434823 71.48499999999999 177.78200000000007 C 68.62810401167428 192.66400758179313 67.09876106019502 207.77036866991696 66.915 222.92300000000003 z M 66.91499999999999 234.06800000000004 C 67.17036154157547 249.03751560652424 68.73668283649626 263.9558810439839 71.596 278.65200000000016 C 57.46815656540849 281.74407248777896 43.834339175037094 286.77010409362816 31.07999999999997 293.588 C 19.21816506354211 275.9170321441631 12.432805027754984 255.32989629413436 11.463000000000001 234.06900000000002 L 67.19299999999998 234.06900000000002 L 66.91499999999998 234.06900000000002 L 66.91499999999998 234.068 z M 78.06099999999999 234.06800000000004 L 122.645 234.06800000000004 L 122.645 273.07900000000006 C 109.26807984764903 273.2953168220799 95.9278025717137 274.54369022061485 82.74299999999975 276.8130000000001 C 79.93380044391634 262.7292355205397 78.36711312245178 248.42593574352088 78.06099999999998 234.0680000000001 z M 122.645 284.22600000000006 L 122.645 344.97100000000006 C 106.87299999999999 340.68000000000006 93.16399999999999 318.55500000000006 85.195 287.79200000000003 C 97.57059754884472 285.66102285796546 110.08962465860941 284.4689574194228 122.64499999999975 284.226 z M 133.791 344.97100000000006 L 133.791 284.22600000000006 C 146.3464290742419 284.46879175141083 158.86549375782408 285.6611950551849 171.24099999999993 287.7930000000001 C 163.272 318.3330000000001 149.56199999999998 340.4580000000001 133.791 344.69300000000004 L 133.791 344.97100000000006 z M 133.791 273.07900000000006 L 133.791 234.06800000000007 L 178.375 234.06800000000007 C 178.1147512194864 248.36480859633798 176.6043271903171 262.6114465870206 173.86099999999996 276.6450000000001 C 160.61630130288668 274.42461178338044 147.2196499666502 273.2323867106323 133.79099999999977 273.0790000000001 z M 189.521 234.06800000000007 L 245.25099999999998 234.06800000000007 C 244.29500600211318 255.39204516760637 237.4888237538854 276.0416969670254 225.578 293.75500000000005 C 212.82388570165742 286.9368326223628 199.18998291871787 281.91110604364815 185.06199999999995 278.82000000000005 C 187.8560093108762 264.06203070947373 189.3480786162022 249.08712926252417 189.521 234.06800000000013 z M 189.521 222.92300000000006 C 189.27914234001744 207.78410710004454 187.6939213017365 192.6965642436176 184.78399999999993 177.83799999999985 C 198.88558430496693 174.77178669316245 212.4993866474167 169.78387255760944 225.24400000000003 163.01400000000004 C 237.2128732019529 180.7852161185151 244.03995713262591 201.51736186074396 244.97199999999998 222.923 L 189.52100000000002 222.92300000000003 z M 218.5 154.04200000000006 C 207.02214982094375 159.85681034857686 194.8491563868692 164.18308898898857 182.276 166.91600000000003 C 178.1558853074538 148.0122836467588 169.66202838836932 130.33752638198968 157.476 115.31000000000004 C 181.37424320537235 121.46915917630625 202.71366093255108 135.02575160855082 218.44399999999996 154.042 L 218.50000000000003 154.04200000000006 z M 211.812 89.17100000000006 C 208.734117089193 89.17100000000006 206.239 86.67588291080708 206.239 83.59800000000007 C 206.239 80.52011708919305 208.734117089193 78.02500000000006 211.812 78.02500000000006 C 214.88988291080702 78.02500000000006 217.38500000000002 80.52011708919305 217.38500000000002 83.59800000000006 C 217.38500000000002 86.67588291080708 214.88988291080702 89.17100000000006 211.812 89.17100000000006 z M 128.218 11.43 L 194.202 33.443 L 128.21800000000002 55.456 L 62.23400000000002 33.443 L 128.21800000000002 11.429999999999996 z M 83.634 52.278 L 126.434 66.545 C 127.57381139204983 66.92299918138602 128.80518860795016 66.92299918138603 129.945 66.545 L 172.745 52.278000000000006 L 172.745 108.286 C 143.98044547954626 97.6150260733123 112.34255452045365 97.61502607331226 83.57799999999992 108.28600000000002 L 83.578 52.334 L 83.634 52.278000000000006 z M 99.016 115.253 C 86.82978199365893 130.28040626326572 78.33590243498735 147.95521063845953 74.216 166.85900000000012 C 61.642585878276684 164.126992989281 49.46947960374388 159.80067424540033 37.991999999999976 153.98500000000004 C 53.74525333734485 134.9796944766544 75.10474705711783 121.44240129518582 99.01599999999999 115.30900000000003 L 99.01600000000002 115.25300000000001 z M 37.71300000000001 302.673 C 49.25921224513147 296.8354272879677 61.508885432286064 292.5085336448304 74.15999999999985 289.79900000000004 C 78.27534596241495 308.8263917564532 86.80883619089595 326.61891242873867 99.07099999999997 341.7389999999999 C 75.00841591618342 335.5538493999699 53.53845023158776 321.87165828981995 37.76899999999999 302.673 L 37.713000000000015 302.673 z M 157.30900000000003 341.683 C 169.5838285428522 326.5848545352861 178.1363398830683 308.8118542398652 182.276 289.799 C 194.89153567030806 292.5353870383675 207.10342045259466 296.8805945006689 218.6119999999999 302.7279999999999 C 202.85560192090762 321.86613137240937 181.42900077142386 335.5065890831534 157.42100000000002 341.68299999999994 L 157.30900000000003 341.68299999999994 z M 345.563 300.945 C 345.563 316.334 333.087 328.81 317.698 328.81 C 302.30899999999997 328.81 289.83299999999997 316.334 289.83299999999997 300.945 L 289.83299999999997 267.507 C 289.83299999999997 252.118 302.30899999999997 239.642 317.698 239.642 C 333.087 239.642 345.563 252.118 345.563 267.507 L 345.563 300.945 z" stroke-linecap="round" />
</g>
<g transform="matrix(0.79 0 0 0.79 538.98 472.86)"  >
<path style="stroke: rgb(71,85,86); stroke-width: 1; stroke-dasharray: none; stroke-linecap: round; stroke-dashoffset: 0; stroke-linejoin: miter; stroke-miterlimit: 4; fill: rgb(71,85,86); fill-rule: nonzero; opacity: 1;" vector-effect="non-scaling-stroke"  paint-order="stroke"  transform=" translate(-257.31, -125.86)" d="M 19.867298523061464 202.06840712272566 Q 21.41403087086357 195.34400238741546 25.683526628015553 191.36993570709146 Q 29.95302238516752 187.39586902676749 35.402755356281816 186.1867327467933 Q 40.8524883273961 184.97759646681908 46.05659286167967 186.1746328055529 L 46.05659286167967 186.1746328055529 Q 51.20222431130836 187.35821929778407 55.611931027791236 190.8044181711235 Q 60.021637744274116 194.2506170444629 62.15260790750839 199.57377082426348 Q 64.28357807074266 204.89692460406408 62.77719526244844 211.44591008540968 L 62.77719526244844 211.44591008540968 Q 61.16321368213319 218.46268024399427 56.98815247521484 222.42768515174475 Q 52.81309126829648 226.39269005949524 47.41949453251489 227.491605093411 Q 42.02589779673329 228.59052012732676 36.58790092383023 227.33968440258246 L 36.58790092383023 227.33968440258246 Q 31.38379638954667 226.14264806384864 27.00332621539123 222.70317411376055 Q 22.622856041235792 219.26370016367247 20.49188587800152 213.94054638387186 Q 18.360915714767238 208.61739260407128 19.867298523061464 202.06840712272566 L 19.867298523061464 202.06840712272566 Z M 22.16587236974845 202.78182023679537 Q 21.11678434254354 207.34272083987534 22.965645205538202 211.21573174991505 Q 24.814506068532875 215.08874265995476 28.582774453703884 217.71016467430513 Q 32.35104283887489 220.33158668865548 36.8534703573 221.36722486935776 L 36.8534703573 221.36722486935776 Q 41.47284404503485 222.42976274306528 46.51149982367332 221.80330608503286 Q 51.55015560231179 221.17684942700043 55.41353349034754 218.43305437375093 Q 59.27691137838329 215.68925932050144 60.40669848460396 210.77752020949222 L 60.40669848460396 210.77752020949222 Q 61.45578651180887 206.21661960641225 59.600200725562885 202.3728452387 Q 57.744614939316904 198.5290708709877 54.03481963880077 195.92109870314 Q 50.32502433828463 193.31312653529224 45.82259681985953 192.27748835458996 L 45.82259681985953 192.27748835458996 Q 40.852384624195444 191.13425140186666 35.78682915255172 191.87765422920884 Q 30.721273680908 192.621057056551 26.97484196218199 195.39175180280574 Q 23.228410243455983 198.16244654906052 22.16587236974845 202.78182023679537 L 22.16587236974845 202.78182023679537 Z M 48.22845651277506 157.03868360096598 Q 49.72856193871385 153.83223950959794 52.65740627911495 151.89039223710185 Q 55.58625061951605 149.9485449646058 59.43230666448939 149.72751804560266 Q 63.27836270946273 149.50649112659957 67.30000445117858 151.38797928794654 L 67.30000445117858 151.38797928794654 Q 71.81076478310311 153.4982970905384 74.42622163031294 157.04037070360505 Q 77.04167847752278 160.5824443166717 77.51076017026567 164.67703371800778 Q 77.97984186300855 168.77162311934381 76.25090679582485 172.46718580092053 L 76.25090679582485 172.46718580092053 Q 74.49654621294728 176.21709499252043 71.40641008179433 178.14972498580502 L 71.40641008179433 178.14972498580502 L 80.4279307456434 182.37036059098872 Q 82.8735236966868 183.51450879721324 84.0217913644446 184.31668169826517 L 84.0217913644446 184.31668169826517 L 85.46055932308934 180.81657501972276 L 87.68876623404 181.85902116317175 L 82.50196103248894 192.9457092079019 L 80.87156573179332 192.18294373708557 Q 81.60890568691578 190.60689494641315 81.13870023775304 189.5588935935621 Q 80.6684947885903 188.510892240711 79.55089585447953 187.85555063324625 Q 78.43329692036876 187.2002090257815 75.74139693490329 185.87458673106443 L 75.74139693490329 185.87458673106443 L 49.5428836250917 173.48536963087506 Q 47.260330204117835 172.4174979717322 46.11206253636005 171.61532507068026 L 46.11206253636005 171.61532507068026 L 44.52423696218747 175.57562934510204 L 42.24168354121362 174.50775768595918 Q 43.7417889671524 171.30131359459114 43.947897997267006 169.94042452207083 Q 44.154007027381596 168.5795354495505 43.749113106771276 167.4627270895116 L 43.749113106771276 167.4627270895116 L 44.51187857758761 165.832331788816 Q 47.27655963149928 166.86079601772326 47.54829218161522 166.98792359619264 L 47.54829218161522 166.98792359619264 Q 46.8437018818055 164.67103937176233 47.014856125565785 161.9689649418395 Q 47.18601036932607 159.26689051191664 48.22845651277506 157.03868360096598 L 48.22845651277506 157.03868360096598 Z M 49.976116938931625 160.24100823080073 Q 49.13707492103366 162.0344430615659 49.218428094894435 164.12599312338673 Q 49.29978126875522 166.21754318520757 50.019310648352516 168.07772529239395 L 50.019310648352516 168.07772529239395 Q 50.4251617342087 168.20135739222792 53.3598732754608 169.57433523969732 L 53.3598732754608 169.57433523969732 L 68.93189613642161 176.92580475386345 Q 72.34811132771368 175.14572785474215 74.02619536350961 171.5588581932118 L 74.02619536350961 171.5588581932118 Q 75.22119460112187 169.004572222122 74.52232610188824 166.3922776711996 Q 73.8234576026546 163.77998312027717 71.48052387963254 161.42527261375497 Q 69.1375901566105 159.07056210723277 65.55072049508016 157.39247807143684 L 65.55072049508016 157.39247807143684 Q 60.65953459299332 155.10418165898784 56.28399536232983 155.60742756401316 Q 51.90845613166634 156.1106734690385 49.976116938931625 160.24100823080073 L 49.976116938931625 160.24100823080073 Z M 67.75854945094568 123.73871756165613 Q 69.71330180814041 120.93241336894258 72.52165642654035 119.52502417710126 Q 75.33001104494028 118.11763498525994 78.69300001307323 118.48588109890683 Q 82.05598898120618 118.85412721255372 85.60079427726541 121.32328808479969 L 85.60079427726541 121.32328808479969 L 73.82474156540115 138.8592107159986 Q 79.69845649116313 143.0237122432983 84.38599774341215 143.32745063149386 Q 89.07353899566117 143.63118901968943 91.98852058095154 139.44634943406396 L 91.98852058095154 139.44634943406396 Q 93.5660400271087 137.18161271713723 94.0476924604213 133.97073885890424 Q 94.52934489373392 130.75986500067123 93.69781707868285 128.27950988641916 L 93.69781707868285 128.27950988641916 L 95.50553884055905 127.78378614113441 Q 97.05790820203251 131.6437018611416 96.36166258423775 135.5825522060648 Q 95.66541696644299 139.521402550988 93.67637070824485 142.37694015059125 L 93.67637070824485 142.37694015059125 Q 91.31009153900912 145.77404522598135 87.80669430940391 147.3919475257493 Q 84.30329707979868 149.00984982551725 80.22727113086182 148.51053783528135 Q 76.15124518192496 148.01122584504543 72.26180603763775 145.30200766577556 L 72.26180603763775 145.30200766577556 Q 68.81546755535794 142.90143459553641 66.88501786375002 139.21689066335554 Q 64.95456817214207 135.5323467311747 65.10483142491918 131.43255149788988 Q 65.25509467769629 127.33275626460507 67.75854945094568 123.73871756165613 L 67.75854945094568 123.73871756165613 Z M 69.71294622064785 125.02694629389966 Q 65.46050249622424 131.13188874822387 71.85982017904354 137.27116665318601 L 71.85982017904354 137.27116665318601 L 80.60476493491467 124.71664789630958 Q 77.65076052153198 122.6590138361046 74.60778869818215 122.51367807897992 Q 71.56481687483232 122.36834232185524 69.71294622064785 125.02694629389966 L 69.71294622064785 125.02694629389966 Z M 94.35014674455208 92.32218445169163 Q 98.0164093860734 88.6064182799062 102.02973998404076 89.1947018096935 Q 106.04307058200811 89.78298533948082 110.9547155217245 94.6291945782734 L 110.9547155217245 94.6291945782734 L 118.89876733726575 102.4674112601466 Q 120.82071535715477 104.3637540057611 121.63448054548788 105.50383567750974 L 121.63448054548788 105.50383567750974 L 124.16123052135555 102.68668559995749 L 125.91233871725443 104.4144645459618 L 117.31558493713543 113.12729556945867 L 116.03428625720942 111.86306707238234 Q 117.2563738043832 110.62447834845386 117.16384131620076 109.4795601248978 Q 117.07130882801832 108.33464190134174 116.21568719283017 107.27969563854066 Q 115.36006555764203 106.22474937573959 113.3099876697604 104.20198378041746 L 113.3099876697604 104.20198378041746 L 107.3305938301057 98.30225079406128 Q 103.61539666441526 94.72083905844002 100.61970793115384 94.04087654961276 Q 97.62401919789244 93.3609140407855 95.17984410354488 95.83809148864245 L 95.17984410354488 95.83809148864245 Q 93.66276990705329 97.37564990455367 92.93554539346857 99.6503904407119 Q 92.20832087988387 101.92513097687015 92.47766775605382 104.1295475119872 L 92.47766775605382 104.1295475119872 Q 92.98961822192923 104.55038800491766 94.18549698986018 105.73033460218889 L 94.18549698986018 105.73033460218889 L 105.03439481932872 116.51898678333518 Q 106.95634283921774 118.41532952894967 107.77010802755085 119.55541120069833 L 107.77010802755085 119.55541120069833 L 110.29685800341852 116.73826112314607 L 112.0479661993174 118.46604006915038 L 103.4512124191984 127.17887109264726 L 102.16991373927239 125.91464259557092 Q 103.39200128644617 124.67605387164245 103.29946879826373 123.53113564808639 Q 103.20693631008129 122.38621742453033 102.37295415593941 121.39476708963056 Q 101.53897200179752 120.4033167547308 99.44561515182338 118.25355930360605 L 99.44561515182338 118.25355930360605 L 89.74988613428825 108.60271276982846 Q 87.95606798239183 106.83279287392159 87.14230279405874 105.69271120217294 L 87.14230279405874 105.69271120217294 L 84.32113517496823 108.89368187760802 L 82.52731702307182 107.12376198170116 Q 85.01363306732192 104.60387457784667 85.66311925119393 103.3903393715344 Q 86.31260543506593 102.17680416522211 86.34678029963862 100.94618152662349 L 86.34678029963862 100.94618152662349 L 87.5688678468124 99.70759280269502 Q 88.46463891057063 100.42285093884828 90.34273896227214 102.10735092276008 L 90.34273896227214 102.10735092276008 Q 90.49423257903263 99.3909839217676 91.53722971383893 96.75349326267782 Q 92.58022684864522 94.11600260358804 94.35014674455208 92.32218445169163 L 94.35014674455208 92.32218445169163 Z M 146.3207433407985 40.8138615880966 L 151.87560282178285 49.7292155432976 L 150.1658892522674 50.72785437201136 Q 147.68442307182715 46.479475199276024 144.93733226639654 45.99948342151466 Q 142.19024146096592 45.519491643753305 138.93495689152468 47.559864740017275 L 138.93495689152468 47.559864740017275 L 134.53986327573983 50.265997055423746 Q 132.7049829825931 51.40723073430892 132.25430323249233 52.53903803365325 Q 131.80362348239157 53.67084533299758 132.27727558445213 54.95760626114765 Q 132.75092768651265 56.244367189297726 134.20349325555082 58.73122329041109 L 134.20349325555082 58.73122329041109 L 139.04537848567813 67.02074362745564 L 148.81582666439377 61.38333798416261 L 145.85064683845465 57.13955328181923 L 148.1302649311419 55.80803484353423 L 154.48523929568398 66.6880302859052 L 152.77552572616852 67.68666911461895 Q 151.6558397667016 65.7697175366774 150.5994494853211 65.03178828979476 Q 149.54305920394054 64.29385904291212 148.38788182749585 64.51694025895316 Q 147.23270445105115 64.74002147499418 145.52299088153572 65.73866030370795 L 145.52299088153572 65.73866030370795 L 143.94715809892165 66.72858506915162 L 140.25584979320993 69.09312371171679 L 147.18579802882962 80.9574996941118 Q 148.759410728621 83.65159380365128 149.3907885721971 85.08942620648591 L 149.3907885721971 85.08942620648591 L 159.19561812647913 79.15399720670187 Q 162.79202149124782 76.98386291641467 163.6649415664432 74.07674913427249 Q 164.53786164163856 71.16963535213033 161.96561011313344 66.7658276730754 L 161.96561011313344 66.7658276730754 L 163.7271331847554 65.73692706167336 L 169.31732379633385 76.02135066857618 L 142.58362070936516 91.63643053573668 L 141.5849818806514 89.92671696622124 Q 143.36805267169163 88.81574507002436 143.69126846296513 87.58467579810201 Q 144.0144842542386 86.35360652617965 143.4977367133416 85.23098816761922 Q 142.9809891724446 84.1083698090588 141.43763825534154 81.46608520162584 L 141.43763825534154 81.46608520162584 L 128.36454813399786 59.084380291605555 Q 127.09355326108945 56.908381203131356 126.34112828676017 55.263310791870616 L 126.34112828676017 55.263310791870616 L 122.7318912658433 57.64939715385401 L 121.4003728275583 55.36977906116676 L 146.3207433407985 40.8138615880966 Z M 185.01337707106836 21.683122948351695 L 198.2045452963806 58.32076316782427 Q 198.85495728899997 60.12724157618038 199.3608609796523 62.24083128465844 L 199.3608609796523 62.24083128465844 L 203.287683449115 60.57191987498963 L 204.14134918942796 62.94292278595704 L 196.06864880208656 65.84945137797499 Q 195.2376014320083 64.4268620947713 194.61656216225214 63.056201587781786 L 194.61656216225214 63.056201587781786 Q 193.6298530972988 65.45211586444924 191.65293315731037 67.31176302207784 Q 189.67601321732195 69.17141017970644 186.96629560478775 70.14702816863554 L 186.96629560478775 70.14702816863554 Q 183.46624368859779 71.40720140433562 180.06998700795242 70.65311880993909 Q 176.67373032730706 69.89903621554255 173.93451535814216 67.2503570442002 Q 171.19530038897724 64.60167787285783 169.65057190650617 60.31129165301204 L 169.65057190650617 60.31129165301204 Q 168.02454192495767 55.79509563212174 168.5866487983361 51.51140144802075 Q 169.14875567171455 47.22770726391975 171.71951052029377 44.006384630511775 Q 174.29026536887298 40.785061997103796 178.4677466881965 39.28098426417144 L 178.4677466881965 39.28098426417144 Q 180.2177726462915 38.65089764632139 182.2252429653177 38.47016879353691 Q 184.23271328434393 38.28943994075242 185.64179386229054 38.48358402346836 L 185.64179386229054 38.48358402346836 L 182.85721751888875 30.749598337693712 Q 182.0848532776532 28.60440522777082 181.70542550966397 27.01921294641228 L 181.70542550966397 27.01921294641228 L 177.77860304020126 28.68812435608109 L 176.92493729988828 26.317121445113678 Q 180.2556318652949 25.11792433372166 181.55289172356817 24.204460125275176 Q 182.85015158184146 23.29099591682869 183.37625601349563 22.27255881666303 L 183.37625601349563 22.27255881666303 L 185.01337707106836 21.683122948351695 Z M 179.59915100576816 41.360677575739324 Q 175.5345745869669 42.82410455913298 174.26002657425394 47.07734183952181 Q 172.98547856154096 51.33057911991064 174.97736528893788 56.86291924550126 L 174.97736528893788 56.86291924550126 Q 177.05055351541222 62.621069172136394 180.522534998681 65.35665769745205 Q 183.9945164819498 68.0922462227677 188.00264045048993 66.64914461414341 L 188.00264045048993 66.64914461414341 Q 189.80911885884606 65.998732621524 191.3242565093608 64.27346223691968 Q 192.8393941598755 62.54819185231537 193.54836464757014 60.44358717504744 L 193.54836464757014 60.44358717504744 Q 193.1667062009993 59.56067334563874 192.3740165849944 57.35902778545472 L 192.3740165849944 57.35902778545472 L 186.57676110168094 41.08039673548028 Q 183.21210782248042 40.05985359050052 179.59915100576816 41.360677575739324 L 179.59915100576816 41.360677575739324 Z M 230.55866232534748 27.199836945055864 L 234.2243724289815 49.58171732709963 Q 234.79591721936697 53.01446208204183 234.9139281406447 55.18454812237737 L 234.9139281406447 55.18454812237737 L 239.13584957502914 54.238303227075235 L 239.5497268370324 56.72408391168856 L 231.08623545846802 58.1332374466045 Q 230.48482835024973 56.34776566296173 230.08068544626587 54.6511017265384 L 230.08068544626587 54.6511017265384 Q 228.45276132850086 56.92940439888002 226.06047587636 58.63547307143551 Q 223.66819042421915 60.34154174399101 221.18240973960584 60.7554190059943 L 221.18240973960584 60.7554190059943 Q 216.15166311598364 61.59302775052475 213.3309887616887 59.08219199583611 Q 210.5103144073938 56.57135624114747 209.32780794452725 49.46912571368084 L 209.32780794452725 49.46912571368084 L 207.57375669127524 38.934150431272 Q 207.15987942927197 36.448369746658685 207.16997337480475 35.047692013465365 L 207.16997337480475 35.047692013465365 L 203.11575348308313 35.90518899280029 L 202.71173044160372 33.47859356258252 L 204.54647332786593 33.173112726342 Q 206.8546982492926 32.78879812591038 207.96942379353646 32.17741693466374 Q 209.08414933778036 31.5660357434171 209.7846380325076 30.658668348940456 L 209.7846380325076 30.658668348940456 L 211.5010104099787 30.37289595374771 L 214.50654766976444 48.424398544392055 Q 215.37371907586657 53.632700931200915 217.22778085003708 55.817867958583435 Q 219.08184262420758 58.00303498596595 222.45540212475422 57.44134441610435 L 222.45540212475422 57.44134441610435 Q 224.64525653738977 57.0767382567205 226.52954021690644 55.42483783142028 Q 228.4138238964231 53.77293740612004 229.39071021583703 51.60303115954119 L 229.39071021583703 51.60303115954119 L 226.8581755411979 36.392420779883494 Q 226.39502717657518 33.6107138232924 226.40518105336022 31.84507034320186 L 226.40518105336022 31.84507034320186 L 222.1734053984519 32.73212998410844 L 221.7693823569725 30.30553455389068 L 223.6041252432347 30.00005371765016 Q 225.91235016466138 29.61573911721854 227.02707570890527 29.004357925971895 Q 228.14180125314914 28.39297673472526 228.8422899478764 27.485609340248608 L 228.8422899478764 27.485609340248608 L 230.55866232534748 27.199836945055864 Z M 259.60252759272396 25.709868028953785 Q 262.8425022116227 25.72269257152365 265.35844511477194 26.752659225397952 Q 267.87438801792115 27.782625879272256 269.27772720962787 29.468193769634404 Q 270.68106640133465 31.153761659996547 270.67322918087524 33.13374614932354 L 270.67322918087524 33.13374614932354 Q 270.6677668757066 34.513735338854474 269.8842106130357 35.41064089867063 Q 269.1006543503647 36.30754645848678 267.7206651608338 36.30208415331814 L 267.7206651608338 36.30208415331814 Q 266.4006755012825 36.29685933967856 265.74412429867834 35.4242537481545 Q 265.0875730960742 34.55164815663042 265.09137296053933 33.591655676956734 L 265.09137296053933 33.591655676956734 Q 265.0973102487661 32.09166742746659 266.0008655713963 31.195236850708568 L 266.0008655713963 31.195236850708568 Q 265.3482329790219 29.332639014521003 263.46097893724857 28.63516343658978 Q 261.5737248954753 27.93768785865856 259.71373946610754 27.930325621257342 L 259.71373946610754 27.930325621257342 Q 256.9537610870457 27.91940101092005 254.75784095456328 29.41072081959909 Q 252.56192082208088 30.90204062827812 251.2905310991137 33.777030745188696 Q 250.01914137614656 36.65202086209928 250.00322944369879 40.67198937073287 L 250.00322944369879 40.67198937073287 Q 249.98731751125098 44.691957879366456 251.26495784630077 47.817039506181 Q 252.5425981813506 50.94212113299554 254.8755738504476 52.721369437027704 Q 257.20854951954465 54.50061774105986 260.2685255485045 54.51272980904251 L 260.2685255485045 54.51272980904251 Q 262.9685043975868 54.52341692785073 265.5843024941619 53.063759324865 Q 268.200100590737 51.604101721879275 269.7088760268028 49.390056400860644 L 269.7088760268028 49.390056400860644 L 271.2641139756911 50.59622178020862 Q 269.03035685775956 54.06740733245011 265.51325960808043 55.8534999773876 Q 261.99616235840136 57.63959262232509 258.63618867954347 57.62629309669708 L 258.63618867954347 57.62629309669708 Q 254.55622064093023 57.61014367272022 251.17360943448372 55.7367399719599 Q 247.7909982280372 53.86333627119957 245.82478824739638 50.375526311923075 Q 243.85857826675553 46.88771635264658 243.87734009755218 42.14775348425771 L 243.87734009755218 42.14775348425771 Q 243.8939645045872 37.947786385685305 245.91902947100004 34.14577219820423 Q 247.94409443741287 30.34375801072316 251.5233286408332 28.01790708749829 Q 255.10256284425355 25.69205616427342 259.60252759272396 25.709868028953785 L 259.60252759272396 25.709868028953785 Z M 293.7549556728527 28.66765642211292 Q 298.73162162174265 29.46414624198449 300.6795125856869 32.47987514103767 Q 302.6274035496311 35.49560404009084 301.6578834465768 41.173740245728524 L 301.6578834465768 41.173740245728524 L 299.4651825487197 54.49461344430439 Q 299.1617578554353 56.39048618673867 298.5834209826861 58.485414935316676 L 298.5834209826861 58.485414935316676 L 302.8278167166227 58.92165438073717 L 302.4295718066869 61.40998735518216 L 293.9573904889337 60.05405825706746 Q 293.9218827443076 59.13692184405598 294.0831435614391 56.61066078295045 L 294.0831435614391 56.61066078295045 Q 289.0659962862058 60.24343289507358 284.08933033731586 59.446943075202014 L 284.08933033731586 59.446943075202014 Q 279.7643706436377 58.754755493646954 277.796305465346 56.434578893903804 Q 275.82824028705426 54.114402294160655 276.3307874353066 50.97436306450388 L 276.3307874353066 50.97436306450388 Q 276.88074469188456 47.53809371884176 280.01496563733986 45.60916679822782 Q 283.1491865827952 43.68023987761388 287.5109306409409 43.193424952585204 Q 291.8726746990866 42.70661002755652 296.0696603246975 43.43907958898238 L 296.0696603246975 43.43907958898238 L 296.65754566793606 39.76582615051597 Q 297.27387707617004 35.91483464244635 296.49429642612716 33.57219638396963 Q 295.71471577608435 31.229558125492918 292.04146233761793 30.64167278225438 L 292.04146233761793 30.64167278225438 Q 290.2048356183847 30.34773011063511 288.42268068710797 30.85243180562518 Q 286.64052575583116 31.357133500615245 285.6237948909237 32.7742638221963 L 285.6237948909237 32.7742638221963 Q 286.2612448892257 33.726974428658096 286.03367636926237 35.1488789854838 L 286.03367636926237 35.1488789854838 Q 285.8914460442853 36.03756933349987 285.11173249659413 36.733088408397805 Q 284.332018948903 37.42860748329575 283.08785246168054 37.22948502832786 L 283.08785246168054 37.22948502832786 Q 281.843685974458 37.030362573359966 281.26074098852456 36.11675700016386 Q 280.67779600259104 35.20315142696774 280.88640047922405 33.89973891654418 L 280.88640047922405 33.89973891654418 Q 281.1993071941736 31.94462015090883 282.9708363815922 30.557146065340383 Q 284.7423655690108 29.169671979771945 287.5897719713018 28.653167594318575 Q 290.4371783735927 28.136663208865205 293.7549556728527 28.66765642211292 L 293.7549556728527 28.66765642211292 Z M 295.7472715880828 45.4534443778188 Q 290.8606516205996 44.85365667088072 286.7797044749443 46.05381099194457 Q 282.6987573292891 47.25396531300842 282.1013899643854 50.9864647746759 L 282.1013899643854 50.9864647746759 Q 281.7505551627753 53.178567633115534 282.8643272398961 54.572092573769986 Q 283.9780993170169 55.965617514424444 285.99246410585334 56.28800625103912 L 285.99246410585334 56.28800625103912 Q 288.24381298749404 56.64832307431436 290.21792902087174 56.0831984095181 Q 292.19204505424943 55.51807374472184 294.37237844663787 54.04411774197411 L 294.37237844663787 54.04411774197411 Q 294.45536274841385 53.14594537229291 294.7967155283588 51.013088537054344 L 294.7967155283588 51.013088537054344 L 295.7472715880828 45.4534443778188 Z M 325.77293307784936 28.442010713101233 L 323.3216992805391 36.476402592448665 L 332.96296953575603 39.417883149220955 L 332.2801258350767 41.65603517275345 L 322.603837954184 38.82933164282899 Q 319.8676010765567 47.59226538384933 318.80588686240685 50.96943326944107 Q 317.74417264825706 54.34660115503281 317.6216109583915 54.74832074900018 L 317.6216109583915 54.74832074900018 Q 316.3784852468985 58.82290520209781 316.75003593219634 61.100458733467526 Q 317.12158661749424 63.378012264837245 319.53190418129844 64.11338240403032 L 319.53190418129844 64.11338240403032 Q 321.02400553032015 64.56861153781651 322.76755362803675 64.09687005040117 Q 324.51110172575335 63.62512856298582 326.09173024026967 62.35091763103701 L 326.09173024026967 62.35091763103701 L 327.2560262202808 64.08620287298714 Q 324.0023630521483 66.73189295089466 321.497686504538 67.12824556139566 Q 318.9930099569277 67.52459817189664 316.92702347366696 66.89428090973115 L 316.92702347366696 66.89428090973115 Q 309.06479713459123 64.49557355093471 312.3438072101943 53.953595893773155 L 312.3438072101943 53.953595893773155 L 317.5361399600419 37.345944626515035 L 313.0997156135629 36.05515455141832 L 313.8525945655939 33.587448474190175 Q 316.62475202277955 34.37048297698692 319.2913917680926 32.5180163865414 Q 321.95803151340556 30.665549796095878 323.8217236214364 27.846711076611605 L 323.8217236214364 27.846711076611605 L 325.77293307784936 28.442010713101233 Z M 350.89690486650994 31.88296471151655 Q 352.16994073132815 32.4156744700968 352.6225335630467 33.74328876976254 Q 353.07512639476533 35.070903069428276 352.4960940484824 36.45463770510021 L 352.4960940484824 36.45463770510021 Q 351.94022299605086 37.78302295534527 350.6216354941094 38.369475851768925 Q 349.3030479921679 38.955928748192584 348.08536151277656 38.446380283463654 L 348.08536151277656 38.446380283463654 Q 346.92302441881213 37.959993112586034 346.4427568943801 36.620798165994636 Q 345.9624893699481 35.28160321940324 346.51836042237966 33.953217969158175 L 346.51836042237966 33.953217969158175 Q 347.07423147481126 32.624832718913126 348.4043996236784 32.01070512977602 Q 349.7345677725455 31.396577540638937 350.89690486650994 31.88296471151655 L 350.89690486650994 31.88296471151655 Z M 348.33846515113277 44.991388957885015 L 338.9813024352014 67.35254067034349 Q 337.9390442118922 69.84326301455297 337.1849369116045 71.02365370396589 L 337.1849369116045 71.02365370396589 L 340.7414320750517 72.31676706031811 L 339.79181902714777 74.5860918628201 L 328.50054440006477 69.8611879171518 L 329.19538321560424 68.20070635434548 Q 330.8005153929837 68.87238387603362 331.8282214716637 68.35933396048533 Q 332.8559275503438 67.84628404493705 333.51543012556556 66.6588261074606 Q 334.17493270078734 65.47136816998415 335.2866748056505 62.81459766949403 L 335.2866748056505 62.81459766949403 L 340.5674498037503 50.19493779216597 Q 341.23912732543846 48.58980561478653 342.2943314457933 46.68987291482421 L 342.2943314457933 46.68987291482421 L 338.27187990507974 45.26681859308834 L 339.244654246835 42.94214440515948 Q 342.51026798702077 44.308660742387076 344.08380637236536 44.51182803760747 Q 345.6573447577099 44.71499533282787 346.7333329737533 44.31971143619687 L 346.7333329737533 44.31971143619687 L 348.33846515113277 44.991388957885015 Z M 372.63317623846876 56.890358901162344 Q 376.2111819082841 58.97301956165627 378.20763403470073 62.46080953625719 Q 380.20408616111735 65.9485995108581 380.1905915470618 69.96734532210213 Q 380.1770969330062 73.98609113334618 378.0340692968458 77.66780711243157 L 378.0340692968458 77.66780711243157 Q 375.7401242215192 81.60879886469199 372.0712333199188 83.91638191891862 Q 368.4023424183184 86.22396497314524 364.3038819769755 86.40705514422885 Q 360.20542153563264 86.59014531531244 356.5755607111822 84.47730116698527 L 356.5755607111822 84.47730116698527 Q 352.99755504136687 82.39464050649134 350.9968470044345 78.97379743044206 Q 348.9961389675022 75.55295435439277 349.0096335815577 71.53420854314874 Q 349.02312819561325 67.51546273190469 351.2265228074402 63.730036443549295 L 351.2265228074402 63.730036443549295 Q 353.5808348584333 59.685334382018866 357.2087064387996 57.38858716119311 Q 360.8365780191658 55.091839940367365 364.9199467165921 54.93467734660126 Q 369.00331541401835 54.777514752835174 372.63317623846876 56.890358901162344 L 372.63317623846876 56.890358901162344 Z M 371.48620370080545 58.86085477729255 Q 367.648922257815 56.627276677632395 363.86316120117436 58.658560316621035 Q 360.07740014453367 60.68984395560967 357.3910697273748 65.30495271812515 L 357.3910697273748 65.30495271812515 Q 355.45932650604715 68.62368261476551 354.6916081374146 72.02985473409011 Q 353.9238897687821 75.4360268534147 354.73850917199445 78.2706159290851 Q 355.5531285752068 81.1052050047555 358.1977414615921 82.64456288425102 L 358.1977414615921 82.64456288425102 Q 361.9831677499475 84.84795749607792 365.5831798548499 82.77797854822455 Q 369.1831919597523 80.7079996003712 371.86952237691116 76.0928908378557 L 371.86952237691116 76.0928908378557 Q 374.91805464806896 70.85552021972015 375.1466974732499 65.99006829225306 Q 375.37534029843084 61.12461636478595 371.48620370080545 58.86085477729255 L 371.48620370080545 58.86085477729255 Z M 408.4773079061441 82.5826054486633 Q 412.45076790198226 85.96786993780948 412.15699186951167 90.01343487274079 Q 411.863215837041 94.05899980767211 407.38844093759496 99.31127451481446 L 407.38844093759496 99.31127451481446 L 400.15097892631695 107.80625795419252 Q 398.3999800526206 109.8614958830743 397.3223372568308 110.7563064801742 L 397.3223372568308 110.7563064801742 L 400.3164036155117 113.07068904142358 L 398.721049086144 114.94323915440475 L 389.4039704752132 107.0053775936482 L 390.5713030576774 105.63521897439368 Q 391.8957897229568 106.76364047077574 393.0308998958372 106.5877857141628 Q 394.16601006871764 106.41193095754986 395.15568939050365 105.48158970831432 Q 396.14536871228967 104.55124845907878 398.0131008442324 102.35899466827154 L 398.0131008442324 102.35899466827154 L 403.460652895732 95.96492111175043 Q 406.76133434482085 91.99822198380531 407.22082383206487 88.96089266166847 Q 407.6803133193089 85.92356333953163 405.0313399887502 83.66672034676752 L 405.0313399887502 83.66672034676752 Q 403.38714964564474 82.26592124781048 401.06539573004835 81.70667286344722 Q 398.74364181445196 81.14742447908397 396.56476537664145 81.57695616447413 L 396.56476537664145 81.57695616447413 Q 396.1824153837131 82.11825874428293 395.09290497341317 83.39707345558715 L 395.09290497341317 83.39707345558715 L 385.1249060684923 95.00451063316847 Q 383.373907194796 97.05974856205026 382.2962643990062 97.95455915915016 L 382.2962643990062 97.95455915915016 L 385.2903307576871 100.26894172039952 L 383.6949762283194 102.14149183338071 L 374.3778976173886 94.20363027262415 L 375.5452301998528 92.83347165336963 Q 376.86971686513215 93.96189314975169 378.0048270380126 93.78603839313875 Q 379.139937210893 93.61018363652582 380.0678694696093 92.70605879822436 Q 380.9958017283256 91.80193395992289 382.9870279864078 89.5572473472475 L 382.9870279864078 89.5572473472475 L 391.9044275671108 79.18295292699524 Q 393.53869318256073 77.26473086003891 394.61633597835055 76.36992026293899 L 394.61633597835055 76.36992026293899 L 391.2179829017863 73.78992096700767 L 392.85224851723615 71.87169890005133 Q 395.54689380177007 74.16745297889759 396.8045988487573 74.7266291718662 Q 398.0623038957445 75.28580536483479 399.2921384105217 75.23006430041477 L 399.2921384105217 75.23006430041477 L 400.6166250758011 76.35848579679683 Q 399.96865834819073 77.30407509448898 398.4257366406912 79.30011933360959 L 398.4257366406912 79.30011933360959 Q 401.1459156583105 79.25293764114782 403.85250074874915 80.10063873718063 Q 406.5590858391878 80.94833983321342 408.4773079061441 82.5826054486633 L 408.4773079061441 82.5826054486633 Z M 470.21600790700114 140.99242779956472 L 468.55967904179164 142.07731244332817 Q 467.35885202976345 140.35347530276545 466.1128458893212 140.09372792938083 Q 464.86683974887893 139.83398055599625 463.77215759662676 140.40754047923053 Q 462.6774754443746 140.98110040246482 460.1176944708689 142.65774030646284 L 460.1176944708689 142.65774030646284 L 438.7861863583219 156.6297395064464 Q 436.1260218172278 158.37212999491496 434.7224095618721 159.0763122416489 L 434.7224095618721 159.0763122416489 L 437.29019773798746 162.55861950589232 L 435.0817592510414 164.00513236424356 L 427.6848184981089 152.71198101054222 L 429.34114736331844 151.62709636677877 Q 430.5419743753466 153.3509335073415 431.78798051578883 153.6106808807261 Q 433.0339866562311 153.8704282541107 434.1286688084833 153.2968683308764 Q 435.2233509607355 152.72330840764212 437.7831319342411 151.0466685036441 L 437.7831319342411 151.0466685036441 L 446.9180365847907 145.0633653168276 L 434.9479148293923 127.22620788743491 L 424.1566813136332 134.29439571801484 Q 421.49651677253917 136.03678620648338 420.09290451718346 136.74096845321733 L 420.09290451718346 136.74096845321733 L 422.66069269329876 140.22327571746075 L 420.4522542063527 141.669788575812 L 413.05531345342024 130.37663722211062 L 414.71164231862974 129.2917525783472 Q 415.9124693306579 131.01558971890992 417.1584754711002 131.27533709229454 Q 418.40448161154245 131.53508446567912 419.4991637637946 130.96152454244483 Q 420.5938459160468 130.38796461921055 423.15362688955247 128.71132471521253 L 423.15362688955247 128.71132471521253 L 444.83647748865906 114.50919846958217 Q 446.94453240801664 113.12843619570144 448.5489117985493 112.29275278002646 L 448.5489117985493 112.29275278002646 L 445.981123622434 108.81044551578304 L 448.18956210938 107.3639326574318 L 455.5865028623125 118.65708401113316 L 453.93017399710294 119.7419686548966 Q 452.72934698507476 118.01813151433386 451.4833408446325 117.75838414094927 Q 450.2373347041903 117.49863676756468 449.14265255193806 118.07219669079896 Q 448.0479703996859 118.64575661403325 445.48818942618027 120.32239651803127 L 445.48818942618027 120.32239651803127 L 437.15635331633837 125.77969502908367 L 448.92570793655983 143.7483536274174 L 459.46598253334776 136.84454225801375 Q 461.57403745270534 135.46377998413303 463.1784168432379 134.62809656845803 L 463.1784168432379 134.62809656845803 L 460.6106286671226 131.14578930421462 L 462.8190671540687 129.69927644586338 L 470.21600790700114 140.99242779956472 Z M 475.90975984374234 183.98534693433237 L 454.7698558730955 192.20060469728975 Q 451.52952434982706 193.46971919933947 449.4307589559329 194.03397430245528 L 449.4307589559329 194.03397430245528 L 451.22968258077174 197.96892967602645 L 448.88323561564636 198.8879436257866 L 445.7542119295582 190.8988503873834 Q 447.37670683836984 189.94119164290265 448.9531100309678 189.1948988221099 L 448.9531100309678 189.1948988221099 Q 446.3873907407006 188.07334431003719 444.2234568468996 186.08560939228303 Q 442.05952295309856 184.09787447452885 441.1405090033384 181.75142750940344 L 441.1405090033384 181.75142750940344 Q 439.28059981930005 177.00266579426867 441.15381054014813 173.72370534996628 Q 443.0270212609962 170.44474490566387 449.73115544706883 167.81899076349202 L 449.73115544706883 167.81899076349202 L 459.6756211564099 163.92412211927046 Q 462.0220681215353 163.00510816951032 463.39455231193824 162.7253097651298 L 463.39455231193824 162.7253097651298 L 461.7171403255376 158.93607646169235 L 464.0077195057791 158.0389437964503 L 464.68603932584017 159.7708451278524 Q 465.539409422046 161.949688738326 466.36810960659557 162.91387544437808 Q 467.1968097911451 163.87806215043014 468.2294289778897 164.37575444007 L 468.2294289778897 164.37575444007 L 468.86398622891454 165.99592020170422 L 451.82431183931334 172.66971197972433 Q 446.90794676952675 174.595265017317 445.1534590599787 176.86115841221553 Q 443.39897135043066 179.12705180711407 444.6462045679623 182.31151554549857 L 444.6462045679623 182.31151554549857 Q 445.45581209513193 184.3786235862043 447.46168896297104 185.88054169018594 Q 449.4675658308102 187.38245979416757 451.79259099137835 187.88946867251695 L 451.79259099137835 187.88946867251695 L 466.15061170655054 182.2659785513656 Q 468.77639759609565 181.23755817901494 470.50596978032036 180.88233985240979 L 470.50596978032036 180.88233985240979 L 468.7629139403654 176.92550319432053 L 471.0534931206069 176.02837052907847 L 471.73181294066796 177.76027186048057 Q 472.5851830368738 179.93911547095416 473.41388322142336 180.90330217700622 Q 474.2425834059729 181.86748888305831 475.27520259271745 182.36518117269816 L 475.27520259271745 182.36518117269816 L 475.90975984374234 183.98534693433237 Z M 495.82082563644894 201.38004484008093 L 478.2789816884702 204.84098559437928 Q 480.2523977007647 206.16402347834924 481.6119440102753 208.25032015722695 Q 482.97149031978586 210.33661683610464 483.50572949662387 213.0444182508933 L 483.50572949662387 213.0444182508933 Q 484.24901878613764 216.81179413233838 483.02811864129256 220.23281778562074 Q 481.8072184964475 223.6538414389031 478.73564401077317 226.06397217787853 Q 475.66406952509874 228.47410291685395 471.19031066588275 229.3567589481515 L 471.19031066588275 229.3567589481515 Q 466.3044950696336 230.32071224548963 462.17788421098464 228.93323870654186 Q 458.05127335233567 227.54576516759408 455.32358858232504 224.41452966136782 Q 452.5959038123144 221.28329415514156 451.806158942206 217.28045728110615 L 451.806158942206 217.28045728110615 Q 451.34160313625995 214.92584735520296 451.7127746995286 212.46750814536622 Q 452.0839462627973 210.0091689355295 453.6896964923565 207.91881819934417 L 453.6896964923565 207.91881819934417 L 450.7620268421478 207.02867752549162 L 450.355540511945 204.9683938403263 L 487.1695483944795 197.82743986871387 Q 489.40642782408753 197.38611185306507 491.0306312095181 197.24913242849422 L 491.0306312095181 197.24913242849422 L 489.9705836613735 193.1161553906107 L 492.4429240835718 192.6283717943673 Q 493.13975779249097 196.16028668322207 493.84796885581466 197.58005324494476 Q 494.55617991913834 198.9998198066675 495.484022677138 199.67295264380112 L 495.484022677138 199.67295264380112 L 495.82082563644894 201.38004484008093 Z M 480.27291548293294 211.84754166874987 Q 479.8896569430274 209.90498847987976 478.59979400440875 208.17188328988752 Q 477.30993106579 206.4387780998953 475.51231502553395 205.38683866636592 L 475.51231502553395 205.38683866636592 L 460.61940724419634 208.32515413897494 Q 452.84919448871585 209.858188298597 454.2196341162568 216.8042875800114 L 454.2196341162568 216.8042875800114 Q 455.0558345669598 221.04258544663713 458.9930421274109 222.8649456267131 Q 462.930249687862 224.68730580678908 468.52244826188206 223.58398576766712 L 468.52244826188206 223.58398576766712 Q 474.7032993173779 222.36452677705864 477.9294354158042 219.3429136525123 Q 481.1555715142305 216.32130052796592 480.27291548293294 211.84754166874987 L 480.27291548293294 211.84754166874987 Z" stroke-linecap="round" />
</g>
</svg>